<svg width="39" height="35" viewBox="0 0 39 35" fill="none" xmlns="http://www.w3.org/2000/svg">
<path d="M18.5696 0.319213C18.4279 0.408739 14.2513 3.44517 9.29147 7.07845C3.47397 11.3459 0.222143 13.7705 0.132643 13.9197C-0.352148 14.7106 0.587601 15.7103 1.40802 15.285C1.51243 15.2328 5.50264 12.3232 10.2834 8.81675C15.0642 5.31776 19.0246 2.44546 19.0842 2.44546C19.1439 2.44546 23.1565 5.3476 27.9895 8.89135C36.2235 14.9195 36.8052 15.3298 37.1259 15.3596C37.9314 15.4268 38.461 14.5539 38.0135 13.8899C37.9091 13.7332 34.5081 11.1967 29.0411 7.19035C24.2007 3.64661 20.0389 0.610173 19.8002 0.453502C19.2856 0.117779 18.9575 0.0804758 18.5696 0.319213Z" fill="black"/>
<path d="M4.65985 15.6057C4.17506 15.9191 4.20489 15.3371 4.18252 24.4837C4.1676 29.057 4.18252 32.9813 4.20489 33.2051C4.24218 33.511 4.30931 33.6602 4.50323 33.8765L4.74935 34.1451L10.0522 34.1675C15.9145 34.1899 15.6534 34.2048 15.9518 33.7124C16.0935 33.4811 16.1009 33.3021 16.1009 28.4229C16.1009 24.9687 16.1308 23.2453 16.183 22.9767C16.5111 21.4249 18.0401 20.3879 19.5765 20.6714C20.7997 20.8952 21.732 21.783 21.9855 22.9767C22.0377 23.2453 22.0676 24.9687 22.0676 28.4229C22.0676 33.3021 22.075 33.4811 22.2167 33.7124C22.5151 34.2048 22.254 34.1899 28.1163 34.1675L33.4191 34.1451L33.6653 33.8765C33.8592 33.6602 33.9263 33.511 33.9636 33.2051C33.986 32.9813 34.0009 29.057 33.986 24.4837C33.9636 16.6949 33.9561 16.1503 33.8294 15.9265C33.4714 15.2625 32.4496 15.2998 32.099 15.9787C32.0021 16.1652 31.9872 17.2843 31.9872 24.2226V32.2427H28.0417H24.0888L24.059 27.5575C24.0291 22.3351 24.0291 22.3873 23.4996 21.3578C22.8283 20.0671 21.6201 19.0972 20.2701 18.7764C19.6362 18.6272 18.4578 18.6347 17.8462 18.7839C16.5111 19.1196 15.2134 20.1939 14.6167 21.4473C14.1319 22.4768 14.1394 22.3351 14.1095 27.5276L14.0797 32.2427H10.1268H6.18135V24.2226C6.18135 15.4714 6.20372 15.9638 5.76368 15.6132C5.50264 15.4043 4.95818 15.4043 4.65985 15.6057Z" fill="black"/>
</svg>
