<svg width="46" height="35" viewBox="0 0 46 35" fill="none" xmlns="http://www.w3.org/2000/svg">
<path d="M9.65263 0.360462C8.2616 0.626343 7.16295 1.07834 5.95799 1.87598C4.5581 2.80656 3.45945 4.08278 2.6709 5.68693C1.97982 7.11382 1.66086 8.57616 1.66086 10.3398C1.66086 12.1655 1.10267 14.6294 0.252107 16.5792C-0.111156 17.4122 -0.0845756 18.0858 0.349567 18.6353C0.597649 18.9455 2.21018 20.009 3.20251 20.5053L3.99105 20.9041L3.33541 21.2232C2.38738 21.6929 1.52796 22.5792 1.05837 23.5541C0.863451 23.9618 0.659669 24.5112 0.606509 24.7683C0.544489 25.0607 0.509048 26.6294 0.509048 29.0046C0.509048 33.108 0.509048 33.1346 1.02293 33.6841C1.15583 33.8259 1.42163 34.012 1.61656 34.1007C1.94438 34.2513 2.2722 34.269 6.02001 34.269H10.0691L10.2463 34.0386C10.4943 33.7284 10.4766 33.4271 10.2108 33.1612L9.99817 32.9396H7.8629H5.73648V29.4477V25.947L5.50612 25.7697C5.21374 25.5393 4.93022 25.5304 4.66442 25.752L4.45178 25.9204L4.42519 29.43L4.39861 32.9396H3.26453C2.28106 32.9396 2.11272 32.9219 1.98868 32.7801C1.85578 32.6294 1.83806 32.2395 1.83806 28.9337C1.83806 25.4773 1.84692 25.2114 2.01526 24.6619C2.35194 23.5718 3.23795 22.6589 4.38975 22.2069C4.8239 22.0297 5.09856 22.0031 6.40099 21.9677L7.9072 21.9322L8.06668 22.5437C8.45652 24.077 9.74123 25.0696 11.3183 25.0696C12.8777 25.0696 14.1801 24.0681 14.57 22.5615L14.7294 21.9322L16.2357 21.9677C17.5381 22.0031 17.8127 22.0297 18.2469 22.2069C19.3987 22.6589 20.2847 23.5718 20.6214 24.6619C20.7897 25.2114 20.7986 25.4773 20.7986 28.9514C20.7986 32.4167 20.7897 32.656 20.6391 32.789C20.5062 32.9131 20.2758 32.9396 19.3544 32.9396H18.238L18.2114 29.43L18.1849 25.9204L17.9722 25.752C17.7064 25.5304 17.4229 25.5393 17.1305 25.7697L16.9002 25.947V29.4477V32.9396H14.7737H12.6385L12.4258 33.1612C12.1423 33.436 12.1423 33.7727 12.4258 34.0475L12.6385 34.269H16.6344C20.9846 34.269 20.9935 34.269 21.5428 33.755C21.6846 33.6221 21.8707 33.3562 21.9593 33.1612C22.1099 32.8333 22.1276 32.5142 22.1276 28.9958C22.1276 24.7328 22.101 24.5201 21.5251 23.4211C21.0732 22.5437 20.1429 21.622 19.2924 21.2143L18.6456 20.9041L19.381 20.5319C21.0644 19.6811 22.2428 18.8391 22.4909 18.2808C22.7212 17.7667 22.6946 17.3591 22.3845 16.5703C21.3834 14.0799 21.0998 12.8125 20.9758 10.2512C20.8606 7.99122 20.6302 6.97202 19.8949 5.50967C18.6722 3.07244 16.3774 1.22014 13.7194 0.528854C12.6562 0.254108 10.6715 0.174347 9.65263 0.360462ZM13.5599 1.86712C15.075 2.31911 16.2445 3.03699 17.3609 4.20686C18.9203 5.84646 19.505 7.40629 19.6468 10.3398C19.762 12.8302 20.01 14.0356 20.8606 16.3044C21.1264 17.0223 21.3302 17.6604 21.3036 17.7313C21.2239 17.9351 19.762 18.848 18.5836 19.4329C17.1482 20.1508 15.7927 20.6205 15.1636 20.6205H14.6851V19.8849V19.1582L15.0838 18.91C15.7218 18.5024 16.7407 17.3502 17.1482 16.5703C17.8748 15.17 17.9013 15.0016 17.9368 11.0932C17.9722 7.73421 17.9634 7.62785 17.7862 7.34425C17.6887 7.18472 17.5026 7.01633 17.3786 6.97202C16.8913 6.7859 16.6787 6.8568 15.9078 7.50377C15.2256 8.07985 14.1092 8.74455 13.8346 8.74455C13.746 8.74455 13.7105 8.60275 13.7105 8.21279C13.7105 7.53923 13.5333 7.17586 13.1169 6.9986C12.7005 6.83021 12.4967 6.89225 11.7347 7.40629C10.9551 7.92918 10.7247 8.05326 9.98931 8.30142C9.48429 8.46981 9.16533 8.50526 7.49078 8.54071C4.58468 8.61161 4.71758 8.44322 4.71758 11.9351C4.71758 14.3014 4.7353 14.5053 4.92136 15.1611C5.23146 16.2424 5.7542 17.1641 6.50731 17.9617C6.87057 18.3428 7.34015 18.7682 7.5528 18.91L7.9515 19.1582V19.8849V20.6205H7.47306C6.49845 20.6205 3.98219 19.557 2.23676 18.396C1.72288 18.0592 1.30645 17.7313 1.30645 17.6604C1.30645 17.5895 1.48365 17.0843 1.6963 16.526C2.54686 14.3458 2.98987 12.2719 2.98987 10.4285C2.98987 7.79624 3.70753 5.86418 5.33778 4.14482C6.33897 3.09016 7.5528 2.32797 8.89953 1.92029C9.89185 1.61896 10.2994 1.57465 11.5841 1.6101C12.5499 1.62782 12.9309 1.681 13.5599 1.86712ZM12.3815 9.00157C12.3815 9.47129 12.6916 9.90556 13.1524 10.0651C13.4713 10.1803 13.5776 10.1803 14.1181 10.0296C14.8269 9.83466 15.518 9.48901 16.1736 8.9927L16.6521 8.6382L16.6166 11.554C16.5812 14.3014 16.5635 14.4964 16.3774 15.037C16.0673 15.9322 15.6863 16.5348 15.0041 17.2084C14.2776 17.9263 13.5599 18.334 12.5942 18.5821C11.3449 18.9012 9.98045 18.7416 8.81092 18.1213C8.05782 17.7224 7.01233 16.6678 6.64021 15.9233C6.11747 14.8864 6.07317 14.5851 6.02887 12.1478L5.98457 9.92328L7.70342 9.87897C9.71465 9.82579 10.4146 9.67513 11.5398 9.05474C11.9297 8.84204 12.2752 8.66479 12.3195 8.66479C12.3549 8.65592 12.3815 8.80659 12.3815 9.00157ZM10.5475 20.0179C11.2829 20.1242 12.2043 20.0622 13.1169 19.8583L13.3561 19.8052V20.8864C13.3561 22.1449 13.2675 22.526 12.8423 23.0135C12.0537 23.944 10.7336 24.0149 9.89185 23.1641C9.38683 22.6678 9.33367 22.4551 9.29823 21.0725L9.26279 19.7963L9.51973 19.8583C9.65263 19.8849 10.1134 19.9558 10.5475 20.0179Z" fill="black"/>
<path d="M32.7153 0.41367C31.7407 0.626373 31.3331 0.768173 30.3674 1.26448C28.5156 2.21279 26.9474 3.94987 26.1588 5.95284C25.769 6.94546 25.5829 8.01784 25.5829 9.32952C25.5829 10.3044 25.5563 10.5614 25.4057 10.8805C25.2019 11.3502 25.1665 12.2453 25.3526 12.6796C25.5298 13.0962 26.0791 13.6899 26.5044 13.9027C26.6993 14.0001 27.0891 14.1065 27.3815 14.1331C27.665 14.1597 27.9131 14.2217 27.9308 14.2749C27.9397 14.3281 28.0194 14.6737 28.0992 15.0459C28.4004 16.4108 29.2687 17.7402 30.4648 18.6885L31.1648 19.238V19.9293V20.6206H29.818C28.2144 20.6206 27.4878 20.7535 26.5575 21.2055C25.6981 21.6309 24.6969 22.6235 24.2805 23.4566C23.7312 24.5644 23.7134 24.6974 23.74 29.111L23.7666 33.0992L24.0324 33.4803C24.183 33.6841 24.4754 33.95 24.6881 34.0652L25.0779 34.2691H34.4607C44.7295 34.2691 44.1802 34.2957 44.7561 33.755C45.2611 33.2853 45.3409 32.9574 45.3409 31.3621C45.3409 29.9441 45.3409 29.9175 45.1194 29.7048C45.0042 29.5807 44.8004 29.4832 44.6764 29.4832C44.5523 29.4832 44.3485 29.5807 44.2333 29.7048C44.0207 29.9086 44.0118 29.953 44.0118 31.2292C44.0118 33.0106 44.0739 32.9397 42.5854 32.9397H41.4424V29.625C41.4424 27.5423 41.407 26.2129 41.3538 26.0622C41.1678 25.5748 40.7513 25.4507 40.3438 25.7698L40.1134 25.947V29.4478V32.9397H34.5316H28.9497V29.4832V26.0179L28.7282 25.8052C28.4536 25.5216 28.1169 25.5216 27.8422 25.8052L27.6207 26.0179V29.4832V32.9397H26.4866C25.4855 32.9397 25.326 32.9219 25.1931 32.7713C25.0602 32.6206 25.0425 32.275 25.069 28.721L25.0956 24.8303L25.3791 24.2277C25.9019 23.1287 26.9474 22.2956 28.1346 22.0475C28.3916 21.9943 29.1801 21.95 29.8712 21.95H31.147L31.2002 22.3399C31.2888 22.916 31.7318 23.7402 32.1748 24.1479C33.743 25.5925 36.1264 25.3355 37.2782 23.6073C37.5972 23.1287 37.6769 22.9249 37.8452 22.1804L37.9073 21.9322L39.4312 21.9677C40.7248 22.0031 41.026 22.0386 41.4513 22.207C42.5234 22.6235 43.3385 23.4389 43.7638 24.5201C43.9055 24.8924 43.9587 25.2912 44.003 26.1863C44.0561 27.2942 44.0739 27.3828 44.2688 27.5423C44.5523 27.7727 44.8624 27.755 45.1194 27.4891C45.332 27.2853 45.3409 27.2233 45.3409 26.2661C45.3409 24.1302 44.5966 22.6147 43.0372 21.5511C41.9918 20.8421 41.3627 20.6826 39.4755 20.6383L37.8984 20.6028V19.8761L37.9073 19.1582L38.3503 18.8569C38.9173 18.4669 39.8033 17.5098 40.1932 16.8539C40.5476 16.2779 40.9551 15.17 41.0437 14.5674L41.1057 14.1508H41.4779C43.055 14.1508 44.2422 12.5024 43.684 11.0932C43.5866 10.8539 43.5245 10.2778 43.4802 9.32065C43.4359 8.4078 43.3473 7.63675 43.2322 7.1493C42.4436 3.87897 39.9628 1.36197 36.6757 0.48457C35.6568 0.218689 33.7696 0.183239 32.7153 0.41367ZM36.4365 1.78738C37.1807 1.99122 38.3503 2.54957 38.9882 3.01929C40.8045 4.32211 41.974 6.44915 42.1247 8.71799L42.1778 9.54222H41.6905C41.1766 9.54222 41.088 9.48018 41.088 9.0725C41.088 8.6914 40.7159 8.10647 40.3083 7.84945C39.6881 7.45949 39.3603 7.45063 37.9161 7.80514C35.3556 8.43439 33.6013 8.43439 31.0584 7.79627C29.8446 7.48608 29.7206 7.47722 29.3307 7.57471C28.5333 7.78741 28.0194 8.35462 27.922 9.11681L27.86 9.54222H27.3904H26.9119V8.92183C26.9119 7.02522 27.7714 5.11975 29.2864 3.67513C30.3585 2.65592 31.5989 1.99122 33.0254 1.68989C33.7696 1.53036 35.7011 1.5924 36.4365 1.78738ZM30.58 9.05477C33.2557 9.77265 35.4885 9.79037 38.2439 9.09022C39.254 8.84207 39.3426 8.83321 39.5464 8.95728C39.6616 9.03705 39.7856 9.20544 39.8122 9.32065C39.8388 9.44473 39.8476 10.6146 39.821 11.9174C39.7945 13.7431 39.7502 14.399 39.635 14.8066C38.8553 17.6073 36.0112 19.2912 33.2557 18.5821C32.2545 18.3251 31.5723 17.9352 30.8104 17.1641C30.0395 16.4019 29.6497 15.7195 29.3927 14.718C29.2333 14.1154 29.2155 13.7343 29.2155 11.6072C29.2155 9.30293 29.2244 9.17885 29.3927 9.01046C29.6142 8.78889 29.6054 8.78889 30.58 9.05477ZM27.8865 11.8554V12.848L27.4701 12.7948C26.8942 12.7328 26.5575 12.3605 26.5575 11.8111C26.5575 11.492 26.6107 11.3679 26.8322 11.1464C27.0537 10.9248 27.1777 10.8716 27.4967 10.8716H27.8865V11.8554ZM42.1424 11.102C42.8423 11.687 42.3905 12.8214 41.469 12.8214H41.1766V11.8465V10.8716H41.5222C41.7703 10.8716 41.9563 10.9425 42.1424 11.102ZM33.2469 19.9559C34.186 20.1508 35.0189 20.1243 36.2859 19.8584L36.5871 19.7963L36.5517 21.0282C36.5162 22.3488 36.4454 22.6058 35.958 23.1287C35.0189 24.1479 33.2912 23.882 32.7064 22.6324C32.5203 22.2158 32.4938 22.0563 32.4938 20.9928C32.4938 20.3547 32.5203 19.8229 32.5646 19.8229C32.6001 19.8229 32.9102 19.885 33.2469 19.9559Z" fill="black"/>
</svg>
