<svg width="45" height="34" viewBox="0 0 45 34" fill="none" xmlns="http://www.w3.org/2000/svg">
<path fill-rule="evenodd" clip-rule="evenodd" d="M33.107 3.19662C33.0494 3.07378 33.1012 2.92789 33.2241 2.87031L36.1186 1.49981C36.2415 1.4403 36.3873 1.49405 36.4449 1.61689L43.5026 16.631C43.5602 16.7539 43.5084 16.8997 43.3874 16.9573L40.4603 18.347C40.3374 18.4065 40.1896 18.3528 40.1321 18.2299L33.107 3.19662ZM32.5926 1.53821C31.6655 1.97777 31.4102 3.04498 31.8229 3.92794C31.2106 3.85692 30.4332 3.72448 28.556 3.14675C26.9916 2.66496 23.9858 2.15057 21.0202 2.6592C19.4213 2.93177 17.807 3.51145 16.4461 4.56522L13.851 4.41358C14.1946 3.60168 13.8664 2.64963 13.0756 2.22733L10.2137 0.703268C9.3749 0.257954 8.33263 0.574664 7.8873 1.41346L0.201616 15.8478C-0.243697 16.6865 0.0730124 17.7269 0.911808 18.1741L3.77371 19.6982C4.84668 20.2702 5.78144 19.585 6.2767 18.6579L6.66059 19.1704L4.92734 21.491C3.86975 22.9057 4.16148 24.9095 5.57611 25.9653C6.43795 26.6102 7.52051 26.7523 8.47256 26.4451C8.54357 27.3319 8.97927 28.1842 9.7471 28.7581C10.6013 29.3953 11.6704 29.5412 12.6167 29.2475C12.7165 30.0441 13.1273 30.8004 13.8221 31.3206C14.6858 31.9655 15.778 32.0864 16.7185 31.739C16.8509 32.3954 17.2156 33.0077 17.7934 33.4396C19.0411 34.3705 20.8069 34.1153 21.7379 32.8695L21.7839 32.8062C21.9836 32.9252 22.2312 33.0538 22.5191 33.1632C23.2849 33.455 24.3925 33.6296 25.5115 32.9904C26.5038 32.4242 26.9492 31.5106 27.1449 30.7351L27.2121 30.7908C28.4598 31.8273 30.3216 31.6161 31.3082 30.3263C31.6633 29.8598 31.8553 29.3185 31.8898 28.7734C33.291 29.4702 35.0377 28.9634 35.8247 27.5488C36.1356 26.9902 36.2489 26.3683 36.1836 25.7675C37.366 25.8136 38.5407 25.1936 39.1319 24.0515C39.8076 22.7521 39.5062 21.1589 38.4044 20.1934L37.9207 19.7711L38.7442 18.7423C39.1607 19.6329 40.155 20.1243 41.0916 19.6789L44.0188 18.2893C44.8749 17.8824 45.2396 16.8612 44.8365 16.0032L37.7788 0.9891C37.3738 0.127268 36.3469 -0.241268 35.487 0.165644L32.5926 1.53821ZM24.2121 9.60176C23.8052 9.35224 23.0873 9.01058 22.3483 8.94533C21.6285 8.88198 20.9125 9.07201 20.354 9.91079C20.1447 10.2217 19.9662 10.7093 19.7224 11.383C19.4921 12.0145 19.2176 12.7689 18.8222 13.4464C18.423 14.1317 17.8702 14.792 17.0544 15.1989C16.229 15.6077 15.2251 15.7114 14.0101 15.4484C13.4612 15.3275 13.0869 14.9551 12.8872 14.5386C12.6915 14.1316 12.6454 13.6556 12.7394 13.2199C12.8201 12.8418 12.8623 12.4636 12.9122 12.0164C12.9371 11.7842 12.9659 11.5327 13.0024 11.2525C13.1041 10.4674 13.2673 9.56526 13.6416 8.51724C13.9986 7.51719 14.4746 6.67265 15.037 5.96054L13.0965 5.84537L7.09424 17.2911L7.70847 18.1107C8.79678 17.4159 10.246 17.4255 11.342 18.2451C12.1501 18.8478 12.5896 19.7614 12.6223 20.6962C13.5398 20.4467 14.5571 20.606 15.3767 21.2183C16.2347 21.8594 16.68 22.8499 16.6608 23.8442C17.4497 23.7175 18.2885 23.8979 18.9815 24.4143C19.8721 25.0784 20.2963 26.1379 20.1965 27.1687C20.8414 27.1265 21.5056 27.305 22.0641 27.7234C23.2945 28.6409 23.5594 30.3723 22.6726 31.6161C22.784 31.6756 22.9068 31.7332 23.0431 31.785C23.5671 31.9846 24.1775 32.0537 24.7802 31.7101C25.3752 31.3704 25.6478 30.7754 25.7591 30.1688C25.7956 29.9769 25.8129 29.7945 25.8186 29.6352L23.928 28.0651C23.6151 27.8041 23.5729 27.3396 23.832 27.0267C24.093 26.7138 24.5576 26.6697 24.8704 26.9307L28.1527 29.6564C28.7573 30.1573 29.6595 30.0556 30.1355 29.4318C30.6038 28.8195 30.481 27.9423 29.8629 27.4816L26.216 24.8635C25.8858 24.6274 25.8071 24.1686 26.0394 23.8366C26.2755 23.5007 26.7362 23.4181 27.074 23.6523L32.3485 27.3358C33.0836 27.8502 34.099 27.616 34.5366 26.8329C34.8495 26.2686 34.767 25.5795 34.36 25.1073L29.1661 21.4219C28.8341 21.1858 28.7554 20.7252 28.9915 20.3931C29.2276 20.061 29.6863 19.9842 30.0184 20.2184L34.0549 23.0822C35.1701 23.8193 36.8785 25.1975 37.8229 23.374C38.1856 22.6753 38.0244 21.8211 37.4332 21.3029L24.2121 9.60176ZM12.4843 3.86048L4.79863 18.2948C4.73528 18.4138 4.58557 18.4598 4.46656 18.3965L1.60466 16.8724C1.48566 16.8091 1.43959 16.6594 1.50293 16.5404L9.18861 2.10608C9.25196 1.98707 9.39976 1.941 9.52068 2.00434L12.3826 3.52841C12.5016 3.59175 12.5477 3.74147 12.4843 3.86048ZM15.0295 9.01211C16.1409 5.90069 18.6151 4.56472 21.2696 4.11172C23.9491 3.65297 26.717 4.12132 28.1218 4.55511C30.4386 5.26722 31.3254 5.36319 32.0356 5.43807C32.1968 5.45535 32.3465 5.47262 32.5039 5.49566L38.0418 17.2618L36.846 18.757L25.0489 8.38792C24.546 8.06737 23.5709 7.57213 22.4768 7.47617C21.3329 7.37636 20.043 7.71993 19.1274 9.09237C18.8145 9.56071 18.5803 10.2056 18.3692 10.7872L18.3366 10.8794C18.1005 11.5281 17.8663 12.1577 17.5496 12.7028C17.2348 13.2403 16.8682 13.6434 16.3979 13.8775C15.9372 14.1059 15.2884 14.2153 14.3229 14.0061C14.298 14.0004 14.2577 13.985 14.2173 13.8986C14.1713 13.8046 14.1502 13.6645 14.1809 13.5282C14.2768 13.0771 14.3325 12.5781 14.3882 12.0848C14.4112 11.8679 14.4362 11.651 14.463 11.4417C14.5571 10.72 14.7013 9.9277 15.0295 9.01211ZM10.4593 19.4249C9.69725 18.8568 8.61852 19.0123 8.04847 19.7743L6.10791 22.3733C5.53978 23.1353 5.69523 24.214 6.45725 24.7841C7.21928 25.3522 8.29801 25.1967 8.86806 24.4347L10.8086 21.8358C11.3787 21.0737 11.2213 19.995 10.4593 19.4249ZM12.0851 22.7494C12.6532 21.9874 13.7339 21.83 14.4959 22.4001C15.2579 22.9682 15.4134 24.0489 14.8452 24.8109L13.0409 27.2256C12.4708 27.9876 11.3921 28.145 10.6301 27.5749C9.86807 27.0068 9.71068 25.9261 10.2808 25.1641L12.0851 22.7494ZM18.0986 25.5941C17.396 25.0682 16.3999 25.214 15.8759 25.9165L14.3825 27.9147C13.8566 28.6172 14.0025 29.6134 14.705 30.1374C15.4075 30.6633 16.4018 30.5194 16.9277 29.8169L18.421 27.8168C18.9451 27.1143 18.8011 26.12 18.0986 25.5941ZM19.3021 29.1758C19.7455 28.5808 20.5881 28.4599 21.1812 28.9032C21.7762 29.3486 21.8991 30.1893 21.4538 30.7843L20.5574 31.9859C20.1121 32.5809 19.2713 32.7018 18.6763 32.2584C18.0813 31.815 17.9604 30.9724 18.4038 30.3774L19.3021 29.1758Z" fill="black"/>
</svg>
