<svg width="19" height="19" viewBox="0 0 19 19" fill="none" xmlns="http://www.w3.org/2000/svg">
<path d="M0.654296 0.654295C1.52671 -0.21811 2.9411 -0.218083 3.81348 0.654295L9.5 6.34084L15.1865 0.654295C16.0589 -0.218083 17.4733 -0.218114 18.3457 0.654295C19.2181 1.52671 19.2181 2.94112 18.3457 3.81349L12.6592 9.50001L18.3457 15.1865C19.2181 16.0589 19.2181 17.4733 18.3457 18.3457C17.4733 19.2181 16.0589 19.2181 15.1865 18.3457L9.5 12.6592L3.81347 18.3457C2.9411 19.2181 1.52671 19.2181 0.654296 18.3457C-0.21811 17.4733 -0.218083 16.0589 0.654291 15.1865L6.34082 9.50001L0.654296 3.81349C-0.218083 2.94111 -0.218114 1.52671 0.654296 0.654295Z" fill="white"/>
</svg>
