<svg width="34" height="34" viewBox="0 0 34 34" fill="none" xmlns="http://www.w3.org/2000/svg">
<path d="M0.510491 0.139503C0.3577 0.219223 0.20491 0.372013 0.125193 0.531445C-0.00766897 0.790527 -0.00766897 0.870243 0.00561718 14.4088L0.0255464 28.0271L0.165051 28.2065C0.238125 28.3062 0.384273 28.4523 0.483919 28.5254C0.663282 28.6649 0.683211 28.6649 10.4552 28.6848L20.2471 28.6981L20.267 31.0165C20.2869 33.242 20.2936 33.3482 20.4264 33.521C20.639 33.8133 20.8782 33.9594 21.1904 33.9926C21.4561 34.0192 21.6089 33.9594 22.9774 33.2818L24.4721 32.5378L25.9734 33.2818C27.3618 33.9727 27.5013 34.0258 27.767 33.9926C28.0726 33.9528 28.3051 33.8066 28.5177 33.521C28.6506 33.3482 28.6572 33.242 28.6771 31.0232L28.6971 28.7047L31.0155 28.6848C33.2343 28.6649 33.3406 28.6582 33.5133 28.5254C33.6129 28.4523 33.7591 28.3062 33.8322 28.2065L33.9717 28.0271L33.9916 14.4088C34.0049 0.863598 34.0049 0.790527 33.872 0.531445C33.7857 0.358727 33.6462 0.219223 33.4734 0.132862C33.2144 0 33.1214 0 16.9853 0C0.955577 0.0066452 0.756285 0.0066452 0.510491 0.139503ZM32.012 14.349V26.7052H30.3512H28.6904V25.5626V24.4266L28.8897 24.121C29.461 23.2242 29.7135 22.3407 29.7068 21.2246C29.7068 20.5603 29.6736 20.3278 29.5275 19.8296C28.996 18.0426 27.6408 16.7073 25.8538 16.1958C25.1762 16.0032 23.841 15.9899 23.1767 16.1692C19.9282 17.0461 18.2741 20.6334 19.7621 23.5896C19.895 23.8619 20.0611 24.1609 20.1275 24.2605C20.2404 24.4133 20.2537 24.5661 20.2537 25.5692V26.7052H11.1195H1.98525V14.349V1.99292H16.9986H32.012V14.349ZM25.236 18.109C26.9034 18.4877 28.0195 20.2282 27.6674 21.9089C27.3419 23.47 26.0531 24.5196 24.4521 24.5196C23.1767 24.5196 22.1005 23.842 21.5491 22.6994C20.9446 21.4638 21.1505 20.082 22.0739 19.0856C22.9109 18.1821 24.0403 17.8367 25.236 18.109ZM22.8711 26.28C23.8875 26.5989 25.0567 26.5989 26.0731 26.2734C26.3653 26.187 26.6178 26.1073 26.651 26.1073C26.6776 26.1073 26.6975 27.2898 26.6975 28.7313C26.6975 30.4585 26.6776 31.3553 26.6311 31.3553C26.5912 31.3553 26.1461 31.1427 25.6346 30.8903C25.0102 30.5781 24.6315 30.4253 24.4721 30.4253C24.3126 30.4253 23.934 30.5781 23.3095 30.8903C22.798 31.1427 22.3529 31.3553 22.3131 31.3553C22.2666 31.3553 22.2466 30.4585 22.2466 28.7313C22.2466 27.2898 22.2666 26.1073 22.2998 26.1073C22.3264 26.1073 22.5854 26.187 22.8711 26.28Z" fill="black"/>
<path d="M10.3555 6.43748C9.83735 6.59692 9.5982 6.95564 9.63806 7.48045C9.66463 7.79267 9.70449 7.88567 9.91707 8.09161L10.1562 8.3374H16.9986H23.841L24.0801 8.09161C24.286 7.89232 24.3325 7.79267 24.3591 7.50037C24.399 7.07522 24.2595 6.77628 23.914 6.55706L23.6749 6.41091L17.0982 6.39762C13.4778 6.39098 10.4485 6.41091 10.3555 6.43748Z" fill="black"/>
<path d="M6.8944 11.8978C6.2168 12.2897 6.25666 13.2397 6.96747 13.5984L7.25977 13.7512H16.9985H26.7373L27.0296 13.5984C27.561 13.3327 27.747 12.7016 27.4414 12.2034C27.1425 11.7251 27.9463 11.7583 16.9852 11.7583H7.13355L6.8944 11.8978Z" fill="black"/>
<path d="M7.03403 16.0833C6.19036 16.4221 6.20365 17.6112 7.05396 17.9301C7.18018 17.9766 8.70809 18.0032 11.6908 18.0032C15.9823 18.0032 16.1483 17.9965 16.3941 17.8703C16.6665 17.7308 16.9322 17.3057 16.9322 17.0067C16.9322 16.7078 16.6665 16.2826 16.3941 16.1431C16.1483 16.0169 15.9889 16.0103 11.6709 16.0169C8.87416 16.0169 7.14032 16.0435 7.03403 16.0833Z" fill="black"/>
<path d="M7.11369 20.3074C6.88118 20.3539 6.52245 20.7326 6.44274 21.0249C6.39624 21.2043 6.39624 21.357 6.43609 21.5231C6.52245 21.8221 6.61546 21.935 6.90111 22.1144C7.13362 22.2539 7.16683 22.2539 11.6376 22.2539C16.5867 22.2539 16.4406 22.2671 16.7395 21.8486C16.8591 21.6826 16.8989 21.5364 16.8989 21.2773C16.8989 20.9053 16.7794 20.6794 16.4406 20.4337C16.2612 20.2942 16.1948 20.2942 11.7638 20.2875C9.29262 20.2809 7.20005 20.2942 7.11369 20.3074Z" fill="black"/>
</svg>
