<svg width="24" height="19" viewBox="0 0 24 19" fill="none" xmlns="http://www.w3.org/2000/svg">
<path d="M5.91021 2.02553C1.59849 3.59004 0.318017 4.07429 0.215579 4.17207C0.0526094 4.33039 -0.0312037 4.58648 0.0107028 4.8193C0.0805471 5.17783 0.159704 5.21508 2.42266 6.04855L4.50867 6.81684V9.12636C4.50867 10.3975 4.52264 11.5057 4.54126 11.5895C4.58317 11.8037 5.09071 12.3299 5.55168 12.6325C7.08825 13.6476 9.2022 14.1086 12.0053 14.0434C14.0447 13.9968 15.5254 13.6988 16.8292 13.0795C17.5463 12.7443 18.2261 12.2554 18.5148 11.8782L18.6405 11.7152L18.6638 9.29398L18.687 6.87272L19.5019 6.57937C19.9489 6.4164 20.3307 6.28137 20.354 6.28137C20.3726 6.28137 20.3866 7.58513 20.3866 9.17758V12.0738L19.3901 13.0795C17.9793 14.495 17.9793 14.3647 19.3855 15.7802L20.3819 16.7813L20.3959 17.6753C20.4099 18.4948 20.4192 18.5786 20.5077 18.6997C20.8057 19.1001 21.3644 19.1001 21.6624 18.6997C21.7509 18.5786 21.7602 18.4994 21.7742 17.6753L21.7881 16.7813L22.7334 15.8267C23.2549 15.3006 23.7158 14.807 23.7577 14.7232C23.8509 14.5323 23.8509 14.3274 23.7577 14.1365C23.7158 14.0527 23.2549 13.5591 22.7334 13.033L21.7835 12.0784L21.7928 8.91217L21.8068 5.75055L22.4354 5.51308C23.2316 5.21974 23.2642 5.20111 23.3759 4.94502C23.497 4.6703 23.4551 4.41886 23.2549 4.20467C23.1245 4.06032 22.6076 3.86476 17.5137 2.02087C12.876 0.34461 11.8796 -0.00461006 11.6933 4.57764e-05C11.5257 0.00470161 10.1335 0.488955 5.91021 2.02553ZM16.1959 3.03128C18.6172 3.90667 20.6101 4.63305 20.6287 4.64701C20.6473 4.66098 18.6172 5.41064 16.1168 6.31396L11.5769 7.94832L7.15809 6.31396C4.08029 5.17317 2.76256 4.66564 2.81844 4.64236C3.17232 4.4887 11.6281 1.44349 11.7026 1.44349C11.7538 1.43884 13.7747 2.1559 16.1959 3.03128ZM8.66207 8.36273C10.804 9.16361 11.4186 9.37314 11.5862 9.36848C11.7352 9.36848 12.6013 9.07514 14.5104 8.38135C16.005 7.84122 17.2389 7.39888 17.2483 7.39888C17.2576 7.39888 17.2669 8.24632 17.2669 9.28001V11.1658L17.1039 11.3008C16.2937 11.9667 14.692 12.4603 12.8481 12.6186C12.0472 12.6838 10.3942 12.6512 9.67714 12.5487C8.12194 12.3299 6.82284 11.8922 6.14302 11.3521L5.90555 11.1705V9.26139C5.90555 8.20907 5.91487 7.35231 5.92418 7.35231C5.93349 7.35231 7.16741 7.80863 8.66207 8.36273ZM21.6205 13.9177L22.1327 14.4299L21.6065 14.956L21.085 15.4775L20.5635 14.956L20.0374 14.4299L20.5496 13.9177C20.8289 13.6383 21.0711 13.4055 21.085 13.4055C21.099 13.4055 21.3411 13.6383 21.6205 13.9177Z" fill="#009BD6"/>
</svg>
