<svg width="22" height="21" viewBox="0 0 22 21" fill="none" xmlns="http://www.w3.org/2000/svg">
<path d="M5.5295 5.62383C7.04757 4.67511 8.80661 3.97021 10.6841 3.97021C14.9505 3.97021 18.6052 7.61016 20.2109 9.47977C20.4644 9.78379 20.6048 10.1788 20.6048 10.5883C20.6048 10.9978 20.4644 11.3928 20.2109 11.6968C19.3258 12.7274 17.818 14.2959 15.9286 15.4961M12.9778 16.8675C12.2402 17.0821 11.4726 17.2064 10.6841 17.2064C6.41769 17.2064 2.76297 13.5664 1.15734 11.6968C0.903743 11.3928 0.763367 10.9978 0.763367 10.5883C0.763367 10.1788 0.903743 9.78379 1.15734 9.47977C1.66605 8.88742 2.38045 8.11736 3.25483 7.34167" stroke="#1D1D1B" stroke-linecap="round" stroke-linejoin="round"/>
<path d="M12.8466 12.6681C14.041 11.5195 14.041 9.65712 12.8466 8.50846C11.6523 7.35981 9.71584 7.35981 8.52148 8.50846" stroke="#1D1D1B" stroke-linecap="round" stroke-linejoin="round"/>
<path d="M20.6237 20.1475L0.744507 1.02881" stroke="#1D1D1B" stroke-linecap="round" stroke-linejoin="round"/>
</svg>
