<svg width="28" height="35" viewBox="0 0 28 35" fill="none" xmlns="http://www.w3.org/2000/svg">
<path d="M19.6697 0.18982C19.6116 0.197177 19.4227 0.230282 19.252 0.259707C17.643 0.546613 16.2155 1.82665 15.7179 3.41934C15.5436 3.9858 15.5 4.26534 15.5 4.87226C15.5 5.69619 15.6417 6.29207 16.0049 7.00566C16.6732 8.31144 17.8645 9.21262 19.2847 9.48481C19.6806 9.56206 20.5196 9.56206 20.9446 9.48849C22.0378 9.29354 23.0875 8.65352 23.7667 7.76338C24.2389 7.14911 24.5041 6.56794 24.6711 5.79183C24.7692 5.34308 24.7765 4.45294 24.6893 4.01154C24.3588 2.3931 23.2946 1.08732 21.8235 0.498796C21.1661 0.23396 20.2835 0.108899 19.6697 0.18982ZM20.9773 1.44411C21.6492 1.63538 22.0742 1.87815 22.55 2.34897C23.1929 2.97795 23.5488 3.76142 23.5996 4.65524C23.6977 6.36196 22.6008 7.86637 20.9409 8.29673C20.4579 8.42179 19.7387 8.41443 19.2411 8.27834C18.4202 8.05396 17.6974 7.53165 17.2325 6.83278C16.3354 5.48285 16.4734 3.67314 17.5558 2.4961C18.1224 1.87815 18.827 1.49561 19.6334 1.36687C19.884 1.32273 20.7266 1.37422 20.9773 1.44411Z" fill="black"/>
<path d="M6.35336 4.72931C5.05824 5.00552 3.96181 5.78328 3.27378 6.90994C2.79915 7.69496 2.58943 8.52723 2.6299 9.47217C2.65566 10.1264 2.78075 10.6461 3.04566 11.2167C3.86247 12.9757 5.83825 14.1024 7.74045 13.8952C9.07604 13.7462 10.0695 13.2228 10.9525 12.198C12.1115 10.846 12.3322 8.81071 11.497 7.18978C10.8679 5.9759 9.8119 5.13273 8.46895 4.77656C8.16357 4.69297 8.03112 4.68206 7.40196 4.67116C6.79855 4.66026 6.63298 4.66753 6.35336 4.72931ZM7.8913 5.83779C9.35199 6.08857 10.4852 7.17888 10.7685 8.59992C10.8568 9.04331 10.8311 9.82471 10.7133 10.2172C10.3233 11.5183 9.27472 12.4596 7.93546 12.7068C7.50866 12.7867 6.85006 12.7649 6.42694 12.6523C5.31947 12.3579 4.43276 11.5728 4.00964 10.508C3.84407 10.0936 3.81464 9.91193 3.81464 9.27228C3.81832 8.60719 3.83671 8.48726 4.02804 8.00025C4.6204 6.48108 6.27241 5.55795 7.8913 5.83779Z" fill="black"/>
<path d="M17.0187 10.5513C15.8497 10.691 14.9115 11.1435 14.1236 11.9416C13.6911 12.383 13.4346 12.7435 13.1891 13.2621C12.8739 13.9205 12.753 14.4539 12.7273 15.2704C12.72 15.5426 12.709 15.7707 12.7017 15.778C12.6943 15.7854 12.5917 15.7339 12.4781 15.664C12.1556 15.4691 11.6316 15.252 11.2358 15.149C10.6164 14.9872 10.2719 14.9725 7.10559 14.9909C4.26541 15.0019 4.14447 15.0056 3.81464 15.0792C3.30524 15.1969 3.02306 15.2999 2.59428 15.5205C1.30429 16.1863 0.435744 17.3229 0.0949223 18.7868C0.0179626 19.1105 0.0179626 19.1988 0.00696833 23.6936C-0.00769067 28.2141 -0.00402592 28.2693 0.0656043 28.4201C0.109581 28.5047 0.193871 28.604 0.259836 28.6445C0.373443 28.7143 0.468727 28.718 2.26812 28.7364L4.15547 28.7548L4.17379 31.2817C4.19211 33.7609 4.19211 33.8087 4.26907 33.908C4.30938 33.9632 4.39001 34.0441 4.44498 34.0846L4.54393 34.1618L13.6765 34.1728C19.793 34.1802 22.853 34.1728 22.9373 34.1471C23.0106 34.125 23.1242 34.0478 23.1938 33.9779L23.3221 33.8455L23.3331 31.2781L23.3404 28.7143L23.608 28.6702C25.2901 28.3796 26.7523 27.0959 27.28 25.4444C27.5072 24.7235 27.4999 24.9626 27.4999 19.6144C27.4999 14.2479 27.5109 14.5569 27.2764 13.8212C26.8183 12.4124 25.6382 11.2244 24.2346 10.772C23.542 10.5476 23.6776 10.5549 20.262 10.5476C18.5396 10.5402 17.081 10.5439 17.0187 10.5513ZM23.7069 11.8239C24.1467 11.9637 24.4765 12.1182 24.788 12.3352C25.6199 12.9127 26.1696 13.8065 26.3089 14.8143C26.3382 15.0203 26.3455 16.5026 26.3382 19.8351L26.3272 24.5616L26.2466 24.8449C25.9827 25.7791 25.466 26.5037 24.733 26.9782C24.1613 27.346 23.7179 27.5005 23.0472 27.5594C22.5672 27.6035 22.5342 27.6146 22.4096 27.7102C22.1897 27.8831 22.197 27.7727 22.2044 30.5056L22.208 33.0032H20.4453C19.0673 33.0032 18.6789 32.9921 18.6679 32.9553C18.6605 32.9333 18.5616 32.1645 18.448 31.256C17.9569 27.3019 17.9642 27.3534 17.7077 26.8458C17.5465 26.5221 17.3596 26.2683 17.0957 26.0145C16.8282 25.7571 16.6486 25.6357 16.2821 25.4591C15.8497 25.2531 15.6005 25.2016 14.9115 25.1796L14.3068 25.1575L14.545 25.0766C15.0031 24.9221 15.2926 24.7419 15.6884 24.363C16.1392 23.94 16.4397 23.4287 16.6046 22.8218C16.7146 22.4172 16.7109 21.6632 16.6046 21.2586C16.2821 20.0595 15.3916 19.1877 14.1932 18.8898C13.8157 18.7978 13.1121 18.8089 12.7127 18.9119C10.763 19.4121 9.73321 21.5749 10.5761 23.3956C10.9353 24.1681 11.6609 24.8228 12.4561 25.0876L12.6577 25.1575L12.0896 25.1796C11.452 25.2053 11.1625 25.2678 10.7227 25.4812C9.89813 25.8784 9.28245 26.6693 9.08822 27.5778C9.04791 27.7727 9.02958 27.9088 8.66311 30.8514C8.53484 31.9034 8.41757 32.8192 8.40657 32.8818L8.38459 33.0032H6.84906H5.30986V30.4909C5.30986 28.0707 5.3062 27.9787 5.23657 27.8647C5.07898 27.6035 5.1706 27.6182 3.07436 27.5962L1.18702 27.5778V23.3846V19.1914L1.26764 18.8898C1.43256 18.2645 1.73307 17.7238 2.15451 17.2861C2.72255 16.6939 3.36021 16.3518 4.1518 16.2121C4.62089 16.1311 10.162 16.1275 10.6274 16.2121C11.4666 16.3592 12.1776 16.7564 12.7493 17.4038C13.0681 17.7643 13.321 17.8342 13.6215 17.6392C13.8744 17.4737 13.8854 17.4222 13.8854 16.1458C13.8854 14.9651 13.9184 14.6194 14.0686 14.1706C14.2482 13.6299 14.6623 12.9899 15.0691 12.6258C15.3293 12.3904 15.8314 12.0777 16.1355 11.96C16.7952 11.7025 16.6999 11.7099 20.2254 11.7173L23.3954 11.7246L23.7069 11.8239ZM13.9513 20.0374C15.0508 20.2986 15.7434 21.4241 15.4759 22.5165C15.3513 23.0241 14.9775 23.5464 14.567 23.7892C13.4236 24.4623 11.987 23.9474 11.5583 22.7115C11.1588 21.5639 11.8368 20.328 13.0242 20.0337C13.277 19.9712 13.6765 19.9712 13.9513 20.0374ZM15.4319 26.386C16.0366 26.5148 16.6046 27.0408 16.7805 27.6329C16.8208 27.7654 16.8941 28.2031 16.9454 28.6077C16.9931 29.0123 17.1323 30.1305 17.2569 31.0905C17.3779 32.0505 17.4768 32.8744 17.4768 32.9186V33.0032H13.5189C11.342 33.0032 9.56097 32.9958 9.56097 32.9848C9.56097 32.9774 9.58662 32.7898 9.61594 32.5728C9.64526 32.3558 9.79185 31.1971 9.9421 30.0054C10.107 28.718 10.2463 27.7433 10.2866 27.6109C10.4662 27.0297 11.0452 26.5001 11.6242 26.386C11.8661 26.3345 15.201 26.3382 15.4319 26.386Z" fill="black"/>
</svg>
