<svg width="18" height="18" viewBox="0 0 18 18" fill="none" xmlns="http://www.w3.org/2000/svg">
<path d="M14.3711 6.61289C14.3711 10.1936 9.00001 14.3711 9.00001 14.3711C9.00001 14.3711 3.62894 10.1936 3.62894 6.61289C3.62894 3.68745 6.07456 1.24182 9.00001 1.24182C11.9255 1.24182 14.3711 3.68745 14.3711 6.61289Z" stroke="black" stroke-width="1.29" stroke-linecap="round" stroke-linejoin="round"/>
<path d="M9.00001 8.40322C9.9888 8.40322 10.7904 7.60166 10.7904 6.61287C10.7904 5.62408 9.9888 4.82251 9.00001 4.82251C8.01122 4.82251 7.20966 5.62408 7.20966 6.61287C7.20966 7.60166 8.01122 8.40322 9.00001 8.40322Z" stroke="black" stroke-width="1.29" stroke-linecap="round" stroke-linejoin="round"/>
<path d="M13.8666 12.5808H14.9679L16.7582 16.7583H1.24179L3.03215 12.5808H4.13346" stroke="black" stroke-width="1.29" stroke-linecap="round" stroke-linejoin="round"/>
</svg>
