<svg width="22" height="22" viewBox="0 0 22 22" fill="none" xmlns="http://www.w3.org/2000/svg">
<path d="M21.092 8.99598H20.2342V8.95348H10.6496V13.0503H16.6682C15.7901 15.4352 13.4307 17.1472 10.6496 17.1472C7.12084 17.1472 4.25983 14.3956 4.25983 11.0019C4.25983 7.60817 7.12084 4.85662 10.6496 4.85662C12.2784 4.85662 13.7603 5.44759 14.8886 6.41292L17.9009 3.51593C15.9989 1.81112 13.4547 0.759766 10.6496 0.759766C4.76835 0.759766 0 5.34568 0 11.0019C0 16.6581 4.76835 21.244 10.6496 21.244C16.5308 21.244 21.2992 16.6581 21.2992 11.0019C21.2992 10.3152 21.2257 9.64482 21.092 8.99598Z" fill="#FFC107"/>
<path d="M1.22784 6.2347L4.72676 8.70255C5.67351 6.44825 7.96637 4.85662 10.6495 4.85662C12.2784 4.85662 13.7603 5.44759 14.8886 6.41292L17.9008 3.51593C15.9988 1.81112 13.4546 0.759766 10.6495 0.759766C6.55903 0.759766 3.01165 2.98077 1.22784 6.2347Z" fill="#FF3D00"/>
<path d="M10.6495 21.2442C13.4003 21.2442 15.8997 20.2317 17.7895 18.5853L14.4935 15.9029C13.4242 16.6818 12.0952 17.1473 10.6495 17.1473C7.87954 17.1473 5.52758 15.4487 4.64153 13.0781L1.1687 15.6515C2.93121 18.9684 6.51053 21.2442 10.6495 21.2442Z" fill="#4CAF50"/>
<path d="M21.092 8.99563H20.2342V8.95312H10.6496V13.05H16.6682C16.2465 14.1956 15.4802 15.1834 14.492 15.9029C14.4925 15.9024 14.493 15.9024 14.4935 15.9019L17.7896 18.5843C17.5564 18.7881 21.2992 16.1226 21.2992 11.0016C21.2992 10.3148 21.2257 9.64447 21.092 8.99563Z" fill="#1976D2"/>
</svg>
