<svg width="18" height="18" viewBox="0 0 18 18" fill="none" xmlns="http://www.w3.org/2000/svg">
<path d="M2.43536 3.03223C2.1188 3.03223 1.81522 3.15798 1.59138 3.38181C1.36754 3.60565 1.24179 3.90924 1.24179 4.2258V15.5647C1.24179 15.8813 1.36754 16.1849 1.59138 16.4087C1.81522 16.6325 2.1188 16.7583 2.43536 16.7583H15.5646C15.8812 16.7583 16.1848 16.6325 16.4086 16.4087C16.6324 16.1849 16.7582 15.8813 16.7582 15.5647V4.2258C16.7582 3.90924 16.6324 3.60565 16.4086 3.38181C16.1848 3.15798 15.8812 3.03223 15.5646 3.03223H13.1775" stroke="black" stroke-width="1.29" stroke-linecap="round" stroke-linejoin="round"/>
<path d="M4.82251 1.24182V4.82254" stroke="black" stroke-width="1.29" stroke-linecap="round" stroke-linejoin="round"/>
<path d="M13.1775 1.24182V4.82254" stroke="black" stroke-width="1.29" stroke-linecap="round" stroke-linejoin="round"/>
<path d="M4.82251 3.03223H10.7904" stroke="black" stroke-width="1.29" stroke-linecap="round" stroke-linejoin="round"/>
<path d="M8.03023 6.08948C7.70064 6.08948 7.43345 6.35667 7.43345 6.68626V8.36476H5.75499C5.4254 8.36476 5.1582 8.63195 5.1582 8.96154V10.9011C5.1582 11.2307 5.4254 11.4979 5.75499 11.4979H7.43345V13.1763C7.43345 13.5059 7.70064 13.7731 8.03023 13.7731H9.96979C10.2994 13.7731 10.5666 13.5059 10.5666 13.1763V11.4979H12.245C12.5746 11.4979 12.8419 11.2307 12.8419 10.9011V8.96154C12.8419 8.63195 12.5746 8.36476 12.245 8.36476H10.5666V6.68626C10.5666 6.35667 10.2994 6.08948 9.96979 6.08948H8.03023Z" stroke="black" stroke-width="1.29" stroke-linecap="round" stroke-linejoin="round"/>
</svg>
