<svg width="174" height="34" viewBox="0 0 174 34" fill="none" xmlns="http://www.w3.org/2000/svg">
<path d="M29.1146 33.8959H8.63273C4.01568 33.8959 0.123239 29.7542 0.00219109 24.4934C-0.104987 19.0731 3.73366 14.6382 8.47176 14.6382H33.6245C33.6245 17.4616 31.6112 19.7656 29.1146 19.7656H8.57893C6.36434 19.7656 4.47171 21.8298 4.51206 24.3469C4.55241 26.7974 6.31055 28.7817 8.47176 28.7817H33.6245C33.6245 31.605 31.6112 33.8959 29.1146 33.8959Z" fill="#009BD6"/>
<path d="M3.44194 8.09776C0.562852 8.09776 -1.05069 5.03515 0.771328 3.02288C2.38488 1.24279 4.81887 0.104004 7.54497 0.104004H28.9511C31.5242 0.104004 33.6245 2.00572 33.6245 4.36072H7.55883C5.29171 4.36072 3.44194 6.04129 3.44194 8.09776Z" fill="#009BD6"/>
<path d="M49.3686 15.0516H57.682V17.7H49.3686V15.0516ZM49.6075 22.4776H59.0438V25.1759H46.502V7.84814H58.7094V10.5464H49.6075V22.4776ZM69.9619 25.1759V22.5023L69.7945 21.9329V17.2544C69.7945 16.3471 69.5319 15.6457 69.0064 15.1503C68.4809 14.6388 67.6843 14.383 66.6174 14.383C65.9008 14.383 65.1919 14.4988 64.4913 14.7299C63.8065 14.961 63.2251 15.2827 62.7473 15.6951L61.5767 13.4425C62.2619 12.8982 63.074 12.4934 64.0135 12.2295C64.969 11.9491 65.9563 11.8086 66.9759 11.8086C68.8231 11.8086 70.2485 12.2708 71.2517 13.1948C72.2713 14.1025 72.7809 15.5138 72.7809 17.4281V25.1759H69.9619ZM65.9485 25.3491C64.9931 25.3491 64.1568 25.1839 63.4403 24.8541C62.7237 24.5077 62.1663 24.037 61.7678 23.4429C61.3856 22.8326 61.1945 22.1478 61.1945 21.3886C61.1945 20.6459 61.3619 19.9773 61.6963 19.3837C62.0467 18.7895 62.6122 18.3188 63.3925 17.9724C64.1728 17.626 65.2078 17.4528 66.4982 17.4528H70.2007V19.507H66.7129C65.6938 19.507 65.009 19.6807 64.6587 20.0271C64.3084 20.3569 64.1332 20.7698 64.1332 21.2647C64.1332 21.8256 64.3479 22.2712 64.7779 22.6015C65.2078 22.9313 65.8052 23.0964 66.5696 23.0964C67.3021 23.0964 67.9554 22.9232 68.5287 22.5768C69.1179 22.2299 69.5397 21.7184 69.7945 21.0422L70.2963 22.8986C70.0097 23.674 69.4919 24.2766 68.7435 24.7056C68.011 25.1346 67.0792 25.3491 65.9485 25.3491ZM80.5546 25.3491C79.4877 25.3491 78.4604 25.2091 77.4731 24.9282C76.5017 24.6311 75.7292 24.2766 75.1559 23.8638L76.3024 21.5124C76.8757 21.8921 77.5609 22.2053 78.3571 22.453C79.1533 22.7007 79.9495 22.8241 80.7457 22.8241C81.6857 22.8241 82.3623 22.6921 82.7763 22.4283C83.2062 22.164 83.4214 21.8095 83.4214 21.3639C83.4214 21.0009 83.2781 20.7285 82.9915 20.5468C82.7049 20.3489 82.3304 20.2003 81.8686 20.1012C81.4068 20.0025 80.8891 19.9113 80.3158 19.8293C79.7584 19.7467 79.1929 19.6394 78.6196 19.507C78.0623 19.3585 77.5527 19.1526 77.0909 18.8882C76.6291 18.6078 76.2547 18.2367 75.968 17.7745C75.6814 17.3123 75.5381 16.7016 75.5381 15.9428C75.5381 15.101 75.7692 14.3749 76.231 13.7642C76.6928 13.1373 77.3375 12.6585 78.166 12.3287C79.01 11.9818 80.0055 11.8086 81.152 11.8086C82.0119 11.8086 82.88 11.9078 83.7559 12.1057C84.6317 12.304 85.3565 12.5845 85.9297 12.9475L84.7832 15.2989C84.1781 14.9197 83.5648 14.6639 82.9437 14.5315C82.3386 14.383 81.7335 14.309 81.1279 14.309C80.2202 14.309 79.5437 14.449 79.0974 14.7299C78.6674 15.0103 78.4527 15.3653 78.4527 15.7943C78.4527 16.19 78.596 16.4871 78.8826 16.6854C79.1692 16.8833 79.5437 17.0399 80.0055 17.1557C80.4673 17.271 80.9769 17.3702 81.5342 17.4528C82.1075 17.5187 82.673 17.626 83.2304 17.7745C83.7877 17.923 84.2973 18.1295 84.7591 18.3933C85.2368 18.641 85.6194 18.9955 85.9061 19.4577C86.1927 19.9199 86.336 20.5221 86.336 21.2647C86.336 22.0899 86.0972 22.8079 85.6194 23.4182C85.1576 24.0289 84.4966 24.5077 83.6367 24.8541C82.7763 25.1839 81.7494 25.3491 80.5546 25.3491ZM89.7251 30.1514C89.1041 30.1514 88.4831 30.0441 87.862 29.8296C87.241 29.6152 86.7232 29.3181 86.3092 28.9385L87.5035 26.6612C87.806 26.9416 88.1487 27.1646 88.5308 27.3293C88.913 27.4944 89.3034 27.577 89.7015 27.577C90.2429 27.577 90.681 27.4366 91.0155 27.1561C91.3499 26.8757 91.6602 26.4054 91.9472 25.7453L92.6875 24.0123L92.9264 23.6412L97.7518 11.9572H100.619L94.6466 26.2402C94.2485 27.2306 93.8022 28.0141 93.3085 28.5921C92.8308 29.1696 92.2894 29.5739 91.6843 29.805C91.0951 30.0361 90.4422 30.1514 89.7251 30.1514ZM92.3531 25.6461L86.5958 11.9572H89.7015L94.3836 23.3688L92.3531 25.6461ZM112.241 15.0516H120.554V17.7H112.241V15.0516ZM112.479 22.4776H121.916V25.1759H109.374V7.84814H121.581V10.5464H112.479V22.4776ZM132.33 11.8086C133.349 11.8086 134.256 12.0151 135.053 12.4274C135.865 12.8403 136.502 13.4757 136.964 14.3336C137.426 15.1755 137.656 16.2645 137.656 17.6013V25.1759H134.67V17.9971C134.67 16.8254 134.4 15.9509 133.858 15.3734C133.333 14.7958 132.592 14.5068 131.637 14.5068C130.936 14.5068 130.314 14.6554 129.773 14.9524C129.232 15.2495 128.809 15.6951 128.507 16.2892C128.221 16.8667 128.077 17.6013 128.077 18.4925V25.1759H125.091V11.9572H127.934V15.5219L127.432 14.4328C127.878 13.591 128.523 12.9475 129.367 12.5019C130.227 12.0397 131.215 11.8086 132.33 11.8086ZM146.246 25.3491C144.845 25.3491 143.762 24.978 142.997 24.2353C142.233 23.4761 141.85 22.3623 141.85 20.8936V9.03638H144.837V20.8191C144.837 21.4465 144.988 21.9329 145.29 22.2798C145.609 22.6262 146.048 22.7994 146.604 22.7994C147.273 22.7994 147.831 22.6181 148.277 22.2551L149.113 24.4579C148.763 24.7549 148.332 24.978 147.823 25.1265C147.314 25.275 146.788 25.3491 146.246 25.3491ZM139.748 14.5315V12.0563H148.253V14.5315H139.748ZM151.57 25.1759V11.9572H154.412V15.5959L154.078 14.5315C154.46 13.6403 155.057 12.9641 155.87 12.5019C156.698 12.0397 157.725 11.8086 158.951 11.8086V14.7546C158.824 14.7213 158.704 14.7052 158.593 14.7052C158.481 14.6886 158.37 14.6801 158.259 14.6801C157.128 14.6801 156.228 15.0269 155.559 15.7198C154.89 16.3965 154.556 17.4115 154.556 18.7644V25.1759H151.57ZM163.002 30.1514C162.381 30.1514 161.76 30.0441 161.139 29.8296C160.518 29.6152 160 29.3181 159.586 28.9385L160.78 26.6612C161.083 26.9416 161.425 27.1646 161.807 27.3293C162.19 27.4944 162.58 27.577 162.978 27.577C163.52 27.577 163.957 27.4366 164.292 27.1561C164.627 26.8757 164.937 26.4054 165.223 25.7453L165.964 24.0123L166.203 23.6412L171.028 11.9572H173.895L167.923 26.2402C167.525 27.2306 167.079 28.0141 166.585 28.5921C166.107 29.1696 165.566 29.5739 164.961 29.805C164.372 30.0361 163.718 30.1514 163.002 30.1514ZM165.63 25.6461L159.872 11.9572H162.978L167.66 23.3688L165.63 25.6461Z" fill="#1D1D1B"/>
</svg>
