<svg width="34" height="34" viewBox="0 0 34 34" fill="none" xmlns="http://www.w3.org/2000/svg">
<path d="M29.1146 33.8959H8.63273C4.01568 33.8959 0.123239 29.7542 0.00219109 24.4934C-0.104987 19.0731 3.73366 14.6382 8.47176 14.6382H33.6245C33.6245 17.4616 31.6112 19.7656 29.1146 19.7656H8.57893C6.36434 19.7656 4.47171 21.8298 4.51206 24.3469C4.55241 26.7974 6.31055 28.7817 8.47176 28.7817H33.6245C33.6245 31.605 31.6112 33.8959 29.1146 33.8959Z" fill="#009BD6"/>
<path d="M3.44194 8.09776C0.562852 8.09776 -1.05069 5.03515 0.771328 3.02288C2.38488 1.24279 4.81887 0.104004 7.54497 0.104004H28.9511C31.5242 0.104004 33.6245 2.00572 33.6245 4.36072H7.55883C5.29171 4.36072 3.44194 6.04129 3.44194 8.09776Z" fill="#009BD6"/>
</svg>
