<svg width="22" height="18" viewBox="0 0 22 18" fill="none" xmlns="http://www.w3.org/2000/svg">
<path d="M19.4615 1H2.53846C1.68879 1 1 1.6888 1 2.53846V15.6154C1 16.4651 1.68879 17.1538 2.53846 17.1538H19.4615C20.3112 17.1538 21 16.4651 21 15.6154V2.53846C21 1.6888 20.3112 1 19.4615 1Z" fill="#0084b6" stroke="#1D1D1B" stroke-width="1.71" stroke-linecap="round" stroke-linejoin="round"/>
<path d="M1 2.9231L10.0154 8.345C10.2918 8.5073 10.6402 8.59617 11 8.59617C11.3598 8.59617 11.7082 8.5073 11.9846 8.345L21 2.9231" fill="#0084b6"/>
<path d="M1 2.9231L10.0154 8.345C10.2918 8.5073 10.6402 8.59617 11 8.59617C11.3598 8.59617 11.7082 8.5073 11.9846 8.345L21 2.9231" stroke="#1D1D1B" stroke-width="1.71" stroke-linecap="round" stroke-linejoin="round"/>
</svg>
