<svg width="31" height="35" viewBox="0 0 31 35" fill="none" xmlns="http://www.w3.org/2000/svg">
<path d="M25.2986 0.378186C24.5402 0.585813 23.7898 1.10488 23.2788 1.78366C22.5683 2.73395 22.3288 3.93978 22.6242 5.08173C23.1032 6.91842 24.9713 8.18016 26.8394 7.91663C27.8612 7.77289 28.4919 7.44548 29.1705 6.70281C31.1583 4.55468 30.1684 1.12085 27.3343 0.362215C26.8154 0.218473 25.8574 0.226459 25.2986 0.378186ZM27.4222 1.83157C28.1646 2.21488 28.5718 2.72596 28.7793 3.5405C29.0108 4.41892 28.7234 5.30533 28.0049 5.95216C26.7835 7.05418 24.8356 6.6549 24.0931 5.1536C23.9335 4.83417 23.9015 4.64252 23.9015 4.08352C23.9015 3.50057 23.9335 3.34884 24.1171 2.99748C24.3805 2.50237 25.0192 1.90344 25.4822 1.73574C25.9692 1.56006 26.9911 1.60797 27.4222 1.83157Z" fill="black"/>
<path d="M11.3279 0.777518C10.4976 1.00112 9.75517 1.56011 9.24424 2.3427C8.82911 2.98954 8.66146 3.66033 8.70936 4.54674C8.74129 5.1776 8.78121 5.3453 9.03667 5.85638C9.41189 6.62301 9.98668 7.19797 10.7211 7.55733C12.5892 8.46769 14.6888 7.74099 15.6149 5.85638C15.8704 5.3453 15.9103 5.1776 15.9422 4.54674C16.0141 3.06141 15.3674 1.83961 14.114 1.10493C13.3716 0.673705 12.23 0.537949 11.3279 0.777518ZM13.2918 2.23889C14.1939 2.66213 14.6569 3.46069 14.5851 4.47487C14.4972 5.68869 13.5472 6.56711 12.3258 6.56711C11.1043 6.56711 10.1543 5.68869 10.0665 4.47487C9.99467 3.46868 10.4337 2.70206 11.3438 2.25486C12.0065 1.91946 12.6052 1.91148 13.2918 2.23889Z" fill="black"/>
<path d="M18.5928 6.27962C17.3474 6.55912 16.2058 7.36567 15.0562 8.7951C14.1381 9.93704 13.1003 11.6859 12.6851 12.7959L12.5893 13.0674L12.1582 12.189C11.9267 11.7019 11.5675 10.8155 11.3679 10.2086C10.9208 8.851 10.7771 8.55553 10.2822 8.02848C9.81913 7.54934 9.1166 7.17401 8.39013 7.03027C7.39221 6.83862 6.17876 7.22991 5.42833 7.98056C4.78168 8.63539 3.38461 11.1588 2.57829 13.1153C0.94172 17.1081 0.159358 20.9732 0.0236421 25.7167C-0.0561907 28.2721 -0.00829099 28.3599 1.38878 28.3599C1.80391 28.3599 2.1472 28.3679 2.1472 28.3759C2.1472 28.3919 2.01946 29.5578 1.86778 30.9792C1.7161 32.3927 1.58837 33.6304 1.58837 33.7183C1.58837 33.8061 1.67618 33.9658 1.78795 34.0696C1.97955 34.2693 2.0035 34.2693 3.28881 34.2693C4.55815 34.2693 4.59806 34.2613 4.7737 34.0776C4.90941 33.9339 5.03715 33.4787 5.34849 32.1052C5.57203 31.1229 5.75564 30.3084 5.77161 30.3004C5.77959 30.2924 6.02707 31.0271 6.33044 31.9375C6.6338 32.8478 6.94515 33.6624 7.02498 33.7502C7.16868 33.894 7.3044 33.9099 8.57374 33.9339L9.97082 33.9578L10.2103 33.7183C10.346 33.5905 10.4498 33.4148 10.4498 33.327C10.4498 33.2471 10.1943 32.1371 9.89098 30.8674C9.57964 29.5977 9.33215 28.5196 9.33215 28.4717C9.33215 28.4318 9.4519 28.336 9.5956 28.2721C10.0506 28.0724 10.0746 27.9047 9.85107 26.4753C9.53174 24.3591 9.45989 23.329 9.45989 20.8534C9.45989 19.0806 9.49182 18.2182 9.5956 17.3797C9.67544 16.7648 9.75527 16.1978 9.77922 16.1259C9.81115 16.0141 10.0427 16.2138 10.7532 16.9484L11.6872 17.9227L11.7431 19.2084C11.7671 19.9111 11.8309 21.1249 11.8788 21.8915C12.1024 25.525 11.9028 29.7654 11.3998 32.1212C11.1204 33.4468 11.1204 33.4308 11.3918 33.7103L11.6313 33.9499H13.1162C14.5373 33.9499 14.6011 33.9419 14.8007 33.7662C15.0083 33.5905 15.0322 33.4548 15.5032 30.532C15.7747 28.855 16.0221 27.4815 16.0461 27.4815C16.078 27.4815 16.1179 27.5613 16.1419 27.6572C16.1658 27.761 16.4373 28.8311 16.7406 30.0369C17.052 31.2427 17.3633 32.5923 17.4352 33.0315C17.5789 33.9179 17.6986 34.1655 18.01 34.2373C18.1218 34.2693 18.7923 34.2054 19.5029 34.1096C20.6924 33.9339 20.8041 33.9019 21.0197 33.6943C21.2991 33.4148 21.3071 33.4787 20.7562 31.1948C20.2533 29.0627 19.6226 26.108 19.3432 24.5667C18.7444 21.2128 19.1676 17.1401 20.3651 14.7444C20.6205 14.2413 21.2113 13.3709 21.4109 13.2032C21.5146 13.1153 21.6344 13.2351 22.1932 13.9618C23.4626 15.6228 25.7378 17.747 27.0311 18.4737C27.4143 18.6893 27.4382 18.7212 27.3664 18.9049C27.3265 19.0247 27.2945 21.9634 27.2945 26.3316C27.2945 33.4148 27.2945 33.5506 27.4542 33.7103C27.7975 34.0537 28.3324 33.9818 28.5479 33.5506C28.6278 33.3989 28.6517 31.7858 28.6517 26.3156C28.6517 20.9572 28.6757 19.2643 28.7475 19.1924C28.8992 19.0407 29.2744 19.0726 29.3702 19.2483C29.4101 19.3361 29.45 19.6556 29.45 19.959C29.45 20.4541 29.474 20.534 29.6576 20.7256C29.945 21.0051 30.2723 20.9972 30.5757 20.7017C30.7912 20.4861 30.8072 20.4222 30.8072 19.8792C30.8072 19.1924 30.7194 18.8171 30.4479 18.4258C30.2643 18.1543 30.2643 18.1223 30.3681 17.8668C30.5278 17.4994 30.5198 16.7967 30.3601 16.4134C30.2803 16.2217 29.7773 15.6707 28.9152 14.8322C26.7677 12.748 25.7777 11.4623 24.8596 9.56172C24.4685 8.74718 24.2449 8.39581 23.8538 7.96459C22.8 6.81466 21.5306 6.23969 19.9898 6.19178C19.415 6.17581 18.9281 6.19976 18.5928 6.27962ZM20.868 7.63718C21.5226 7.81286 22.0575 8.11632 22.6483 8.67531C23.0953 9.09057 23.2231 9.27424 23.6622 10.1926C24.5962 12.1411 25.7298 13.6264 27.8454 15.6787C28.9471 16.7488 29.1307 16.9644 29.1307 17.172C29.1307 17.4835 28.7874 17.771 28.5 17.6991C28.3883 17.6671 28.0609 17.5074 27.7735 17.3397C25.8097 16.1898 23.3827 13.6104 21.7302 10.9113C21.4907 10.52 21.2352 10.1447 21.1634 10.0888C20.9478 9.92107 20.5247 9.96899 20.3092 10.1926C20.0218 10.4721 20.0537 10.8155 20.413 11.3904L20.7163 11.8696L20.2453 12.4286C18.7205 14.2333 17.9142 16.7967 17.7146 20.4382C17.6188 22.187 17.6827 22.9936 18.0818 25.2056C18.3692 26.7947 18.96 29.5977 19.415 31.5382C19.7184 32.8239 19.7583 32.6801 19.0718 32.784L18.7844 32.8319L18.489 31.4823C17.8503 28.6155 16.5411 24.0477 16.2696 23.7602C15.9104 23.3769 15.3037 23.5765 15.1679 24.1116C15.128 24.2713 14.8007 26.2198 14.4415 28.4398C14.0822 30.6518 13.7709 32.4965 13.7549 32.5284C13.7309 32.5604 13.4835 32.5923 13.1961 32.5923C12.7011 32.5923 12.6851 32.5843 12.725 32.4086C13.3078 29.7893 13.4595 25.2056 13.1162 20.1107C12.9326 17.3717 13.0763 15.9343 13.723 13.9698C14.0583 12.9556 14.8965 11.3026 15.5431 10.3922C16.2537 9.39402 17.3953 8.2361 17.9381 7.96459C18.8163 7.5174 19.934 7.39761 20.868 7.63718ZM8.65357 8.50761C9.01282 8.65934 9.47585 9.09057 9.6435 9.42596C9.72333 9.58568 9.85107 9.92906 9.92292 10.1926C10.2582 11.3824 11.0246 13.1233 11.7351 14.2732L12.0545 14.8003L11.9666 15.2475C11.9108 15.503 11.8549 15.7905 11.8389 15.8943L11.799 16.086L11.5914 15.8943C11.2322 15.5509 10.2263 14.3212 9.80317 13.6983C9.30022 12.9556 8.97291 12.2369 8.81324 11.5661C8.68551 11.0151 8.43004 10.7117 8.08676 10.7117C7.81533 10.7117 7.41616 11.1189 7.41616 11.3904C7.41616 11.9654 7.86323 13.1553 8.40609 14.0576L8.68551 14.5128L8.53382 15.2715C7.97499 17.9946 7.90315 22.2429 8.34223 25.7247C8.40609 26.2277 8.47794 26.7229 8.49391 26.8267L8.53382 27.0024L4.9653 26.9864L1.38878 26.9624L1.41273 25.525C1.46862 21.5881 2.23501 17.6831 3.672 14.0257C4.13503 12.8358 5.30858 10.52 5.89136 9.6256C6.37834 8.86697 6.76952 8.53956 7.36028 8.38783C7.67961 8.30797 8.31828 8.37186 8.65357 8.50761ZM4.78168 28.3759C4.78168 28.3919 4.55017 29.406 4.27873 30.6358L3.7678 32.8718L3.40057 32.8958C3.19301 32.9117 3.02536 32.9117 3.02536 32.8958C3.02536 32.8798 3.13712 31.8816 3.26486 30.6757C3.40057 29.4699 3.50435 28.4557 3.50435 28.4238C3.50435 28.3919 3.79175 28.3599 4.14302 28.3599C4.49428 28.3599 4.78168 28.3679 4.78168 28.3759ZM7.89516 28.4158C7.89516 28.4557 8.11071 29.3741 8.37416 30.4681C8.63761 31.5542 8.85316 32.4805 8.85316 32.5284C8.85316 32.5683 8.65357 32.5923 8.40609 32.5763L7.95105 32.5524L7.28843 30.516C6.9212 29.398 6.61784 28.4557 6.61784 28.4158C6.61784 28.3839 6.90523 28.3599 7.2565 28.3599C7.60776 28.3599 7.89516 28.3839 7.89516 28.4158Z" fill="black"/>
</svg>
