<svg width="21" height="15" viewBox="0 0 21 15" fill="none" xmlns="http://www.w3.org/2000/svg">
<path d="M18.0954 1H2.42462C1.63782 1 1 1.63783 1 2.42461V12.3969C1 13.1837 1.63782 13.8215 2.42462 13.8215H18.0954C18.8822 13.8215 19.52 13.1837 19.52 12.3969V2.42461C19.52 1.63783 18.8822 1 18.0954 1Z" stroke="#1D1D1B" stroke-width="1.29" stroke-linecap="round" stroke-linejoin="round"/>
<path d="M6.69829 9.54777C7.87849 9.54777 8.83522 8.59104 8.83522 7.41085C8.83522 6.23065 7.87849 5.27393 6.69829 5.27393C5.5181 5.27393 4.56137 6.23065 4.56137 7.41085C4.56137 8.59104 5.5181 9.54777 6.69829 9.54777Z" stroke="#1D1D1B" stroke-width="1.29" stroke-linecap="round" stroke-linejoin="round"/>
<path d="M12.3968 5.27393H15.9584" stroke="#1D1D1B" stroke-width="1.29" stroke-linecap="round" stroke-linejoin="round"/>
<path d="M12.3968 9.54785H15.9584" stroke="#1D1D1B" stroke-width="1.29" stroke-linecap="round" stroke-linejoin="round"/>
</svg>
