<svg width="34" height="35" viewBox="0 0 34 35" fill="none" xmlns="http://www.w3.org/2000/svg">
<path d="M2.39717 0.238682C1.25498 0.464531 0.285449 1.44763 0.0663086 2.61673C-0.0266602 3.10828 -0.0266602 31.233 0.0663086 31.7245C0.29209 32.9202 1.25498 33.8834 2.45029 34.1092C2.9417 34.2022 22.9565 34.2022 23.448 34.1092C24.6433 33.8834 25.6062 32.9202 25.8319 31.7245C25.8718 31.5053 25.8983 29.6454 25.8983 26.8422V22.3253L29.7034 18.4991C33.2229 14.9653 33.5218 14.6464 33.6944 14.2612C34.0796 13.3777 34.0729 12.5407 33.6745 11.6839C33.1433 10.5546 31.7952 9.83721 30.58 10.0431C29.6503 10.2026 29.4245 10.3686 27.5784 12.2086L25.8983 13.8759V9.81729C25.8983 7.3861 25.8718 5.61917 25.8319 5.40661C25.6792 4.57629 25.4866 4.32387 23.614 2.45066C21.7413 0.577454 21.489 0.384819 20.6589 0.23204C20.214 0.152328 2.82217 0.152328 2.39717 0.238682ZM17.9296 4.75564C17.9296 7.32632 17.9296 7.35953 18.0757 7.61859C18.3679 8.13671 18.3745 8.13671 21.3163 8.13671H23.9062V12.0093V15.8753L21.6483 18.1338L19.3905 20.3923L18.6269 22.6906C18.2085 23.9527 17.8632 25.0753 17.8632 25.1816C17.8698 25.6399 18.3679 26.1381 18.8261 26.1381C19.1448 26.1381 23.5675 24.6369 23.7534 24.4708L23.9062 24.3247V27.8585C23.9062 31.2662 23.8995 31.399 23.7733 31.6515C23.687 31.8242 23.5476 31.9637 23.3749 32.05C23.1159 32.1829 23.003 32.1829 12.9491 32.1829C3.10107 32.1829 2.77568 32.1762 2.53662 32.0567C2.39053 31.9836 2.23115 31.8242 2.13818 31.6647L1.99209 31.399V17.164V2.92229L2.15146 2.66323C2.47686 2.12518 1.81279 2.16503 10.346 2.15839H17.9296V4.75564ZM20.4331 2.22482C20.6788 2.31781 23.6937 5.32026 23.8132 5.5926C23.8663 5.71217 23.9062 5.88488 23.9062 5.97787V6.14394H21.914H19.9218V4.15116V2.15839H20.0812C20.1741 2.15839 20.3269 2.1916 20.4331 2.22482ZM31.4765 12.1223C31.762 12.2684 32.0077 12.6537 32.0077 12.9592C32.0077 13.2781 31.762 13.67 31.2308 14.1947L30.7128 14.7129L29.9956 13.9955L29.2851 13.2847L29.8296 12.74C30.1351 12.4411 30.4737 12.1488 30.58 12.0957C30.8522 11.9496 31.1644 11.9628 31.4765 12.1223ZM26.8944 18.5324L24.5038 20.9237L23.7933 20.2063L23.0761 19.4955L25.4667 17.1042L27.8573 14.7129L28.5679 15.4236L29.2851 16.141L26.8944 18.5324ZM22.3788 21.6544L23.0761 22.3518L22.8104 22.6109C22.5847 22.8301 22.3987 22.9165 21.5222 23.2087C20.9577 23.3947 20.4862 23.5342 20.4729 23.5276C20.4663 23.5143 20.6058 23.0427 20.7917 22.478C21.0706 21.6411 21.1769 21.4086 21.3694 21.2027C21.5022 21.0698 21.6284 20.9569 21.6483 20.9569C21.6683 20.9569 21.9937 21.2691 22.3788 21.6544Z" fill="#2B3337"/>
<path d="M2.39717 0.238682C1.25498 0.464531 0.285449 1.44763 0.0663086 2.61673C-0.0266602 3.10828 -0.0266602 31.233 0.0663086 31.7245C0.29209 32.9202 1.25498 33.8834 2.45029 34.1092C2.9417 34.2022 22.9565 34.2022 23.448 34.1092C24.6433 33.8834 25.6062 32.9202 25.8319 31.7245C25.8718 31.5053 25.8983 29.6454 25.8983 26.8422V22.3253L29.7034 18.4991C33.2229 14.9653 33.5218 14.6464 33.6944 14.2612C34.0796 13.3777 34.0729 12.5407 33.6745 11.6839C33.1433 10.5546 31.7952 9.83721 30.58 10.0431C29.6503 10.2026 29.4245 10.3686 27.5784 12.2086L25.8983 13.8759V9.81729C25.8983 7.3861 25.8718 5.61917 25.8319 5.40661C25.6792 4.57629 25.4866 4.32387 23.614 2.45066C21.7413 0.577454 21.489 0.384819 20.6589 0.23204C20.214 0.152328 2.82217 0.152328 2.39717 0.238682ZM17.9296 4.75564C17.9296 7.32632 17.9296 7.35953 18.0757 7.61859C18.3679 8.13671 18.3745 8.13671 21.3163 8.13671H23.9062V12.0093V15.8753L21.6483 18.1338L19.3905 20.3923L18.6269 22.6906C18.2085 23.9527 17.8632 25.0753 17.8632 25.1816C17.8698 25.6399 18.3679 26.1381 18.8261 26.1381C19.1448 26.1381 23.5675 24.6369 23.7534 24.4708L23.9062 24.3247V27.8585C23.9062 31.2662 23.8995 31.399 23.7733 31.6515C23.687 31.8242 23.5476 31.9637 23.3749 32.05C23.1159 32.1829 23.003 32.1829 12.9491 32.1829C3.10107 32.1829 2.77568 32.1762 2.53662 32.0567C2.39053 31.9836 2.23115 31.8242 2.13818 31.6647L1.99209 31.399V17.164V2.92229L2.15146 2.66323C2.47686 2.12518 1.81279 2.16503 10.346 2.15839H17.9296V4.75564ZM20.4331 2.22482C20.6788 2.31781 23.6937 5.32026 23.8132 5.5926C23.8663 5.71217 23.9062 5.88488 23.9062 5.97787V6.14394H21.914H19.9218V4.15116V2.15839H20.0812C20.1741 2.15839 20.3269 2.1916 20.4331 2.22482ZM31.4765 12.1223C31.762 12.2684 32.0077 12.6537 32.0077 12.9592C32.0077 13.2781 31.762 13.67 31.2308 14.1947L30.7128 14.7129L29.9956 13.9955L29.2851 13.2847L29.8296 12.74C30.1351 12.4411 30.4737 12.1488 30.58 12.0957C30.8522 11.9496 31.1644 11.9628 31.4765 12.1223ZM26.8944 18.5324L24.5038 20.9237L23.7933 20.2063L23.0761 19.4955L25.4667 17.1042L27.8573 14.7129L28.5679 15.4236L29.2851 16.141L26.8944 18.5324ZM22.3788 21.6544L23.0761 22.3518L22.8104 22.6109C22.5847 22.8301 22.3987 22.9165 21.5222 23.2087C20.9577 23.3947 20.4862 23.5342 20.4729 23.5276C20.4663 23.5143 20.6058 23.0427 20.7917 22.478C21.0706 21.6411 21.1769 21.4086 21.3694 21.2027C21.5022 21.0698 21.6284 20.9569 21.6483 20.9569C21.6683 20.9569 21.9937 21.2691 22.3788 21.6544Z" fill="black" fill-opacity="0.2"/>
<path d="M4.52227 10.2557C4.24336 10.4019 3.98438 10.8204 3.98438 11.1193C3.98438 11.4381 4.23672 11.85 4.52891 11.9961C4.76797 12.1157 5.04023 12.1223 11.9531 12.1223C19.0121 12.1223 19.1316 12.1223 19.3906 11.9895C19.6895 11.8367 19.9219 11.4581 19.9219 11.1259C19.9219 10.7938 19.6895 10.4152 19.3906 10.2624C19.1316 10.1295 19.0188 10.1295 11.9398 10.1295C5.14648 10.1362 4.73477 10.1428 4.52227 10.2557Z" fill="#2B3337"/>
<path d="M4.52227 10.2557C4.24336 10.4019 3.98438 10.8204 3.98438 11.1193C3.98438 11.4381 4.23672 11.85 4.52891 11.9961C4.76797 12.1157 5.04023 12.1223 11.9531 12.1223C19.0121 12.1223 19.1316 12.1223 19.3906 11.9895C19.6895 11.8367 19.9219 11.4581 19.9219 11.1259C19.9219 10.7938 19.6895 10.4152 19.3906 10.2624C19.1316 10.1295 19.0188 10.1295 11.9398 10.1295C5.14648 10.1362 4.73477 10.1428 4.52227 10.2557Z" fill="black" fill-opacity="0.2"/>
<path d="M4.52227 14.2413C4.24336 14.3875 3.98438 14.806 3.98438 15.1049C3.98438 15.4237 4.23672 15.8356 4.52891 15.9817C4.76797 16.1013 5.00039 16.1079 9.96094 16.1079C15.0277 16.1079 15.1539 16.1079 15.4062 15.9751C15.7051 15.8223 15.9375 15.4437 15.9375 15.1115C15.9375 14.7794 15.7051 14.4008 15.4062 14.248C15.1539 14.1151 15.0277 14.1151 9.94766 14.1151C5.0668 14.1218 4.73477 14.1284 4.52227 14.2413Z" fill="#2B3337"/>
<path d="M4.52227 14.2413C4.24336 14.3875 3.98438 14.806 3.98438 15.1049C3.98438 15.4237 4.23672 15.8356 4.52891 15.9817C4.76797 16.1013 5.00039 16.1079 9.96094 16.1079C15.0277 16.1079 15.1539 16.1079 15.4062 15.9751C15.7051 15.8223 15.9375 15.4437 15.9375 15.1115C15.9375 14.7794 15.7051 14.4008 15.4062 14.248C15.1539 14.1151 15.0277 14.1151 9.94766 14.1151C5.0668 14.1218 4.73477 14.1284 4.52227 14.2413Z" fill="black" fill-opacity="0.2"/>
<path d="M4.52227 18.2267C4.24336 18.3728 3.98438 18.7913 3.98438 19.0902C3.98438 19.4091 4.23672 19.8209 4.52891 19.9671C4.76797 20.0866 5.00039 20.0933 9.96094 20.0933C15.0277 20.0933 15.1539 20.0933 15.4062 19.9604C15.7051 19.8076 15.9375 19.429 15.9375 19.0969C15.9375 18.7647 15.7051 18.3861 15.4062 18.2333C15.1539 18.1005 15.0277 18.1005 9.94766 18.1005C5.0668 18.1071 4.73477 18.1138 4.52227 18.2267Z" fill="#2B3337"/>
<path d="M4.52227 18.2267C4.24336 18.3728 3.98438 18.7913 3.98438 19.0902C3.98438 19.4091 4.23672 19.8209 4.52891 19.9671C4.76797 20.0866 5.00039 20.0933 9.96094 20.0933C15.0277 20.0933 15.1539 20.0933 15.4062 19.9604C15.7051 19.8076 15.9375 19.429 15.9375 19.0969C15.9375 18.7647 15.7051 18.3861 15.4062 18.2333C15.1539 18.1005 15.0277 18.1005 9.94766 18.1005C5.0668 18.1071 4.73477 18.1138 4.52227 18.2267Z" fill="black" fill-opacity="0.2"/>
<path d="M4.52227 22.2123C4.24336 22.3584 3.98438 22.7769 3.98438 23.0758C3.98438 23.3947 4.23672 23.8065 4.52891 23.9526C4.76797 24.0722 5.00039 24.0789 9.96094 24.0789C15.0277 24.0789 15.1539 24.0789 15.4062 23.946C15.7051 23.7932 15.9375 23.4146 15.9375 23.0825C15.9375 22.7503 15.7051 22.3717 15.4062 22.2189C15.1539 22.0861 15.0277 22.0861 9.94766 22.0861C5.0668 22.0927 4.73477 22.0994 4.52227 22.2123Z" fill="#2B3337"/>
<path d="M4.52227 22.2123C4.24336 22.3584 3.98438 22.7769 3.98438 23.0758C3.98438 23.3947 4.23672 23.8065 4.52891 23.9526C4.76797 24.0722 5.00039 24.0789 9.96094 24.0789C15.0277 24.0789 15.1539 24.0789 15.4062 23.946C15.7051 23.7932 15.9375 23.4146 15.9375 23.0825C15.9375 22.7503 15.7051 22.3717 15.4062 22.2189C15.1539 22.0861 15.0277 22.0861 9.94766 22.0861C5.0668 22.0927 4.73477 22.0994 4.52227 22.2123Z" fill="black" fill-opacity="0.2"/>
<path d="M12.491 28.3236C12.2121 28.4698 11.9531 28.8882 11.9531 29.1872C11.9531 29.506 12.2055 29.9178 12.4977 30.064C12.7301 30.1835 12.9359 30.1902 15.9375 30.1902C19.0055 30.1902 19.1383 30.1835 19.3906 30.0573C19.6895 29.9046 19.9219 29.5259 19.9219 29.1938C19.9219 28.8617 19.6895 28.483 19.3906 28.3303C19.1383 28.2041 19.0121 28.1974 15.9242 28.1974C12.9625 28.2041 12.6969 28.2107 12.491 28.3236Z" fill="#2B3337"/>
<path d="M12.491 28.3236C12.2121 28.4698 11.9531 28.8882 11.9531 29.1872C11.9531 29.506 12.2055 29.9178 12.4977 30.064C12.7301 30.1835 12.9359 30.1902 15.9375 30.1902C19.0055 30.1902 19.1383 30.1835 19.3906 30.0573C19.6895 29.9046 19.9219 29.5259 19.9219 29.1938C19.9219 28.8617 19.6895 28.483 19.3906 28.3303C19.1383 28.2041 19.0121 28.1974 15.9242 28.1974C12.9625 28.2041 12.6969 28.2107 12.491 28.3236Z" fill="black" fill-opacity="0.2"/>
</svg>
