<svg width="43" height="34" viewBox="0 0 43 34" fill="none" xmlns="http://www.w3.org/2000/svg">
<path d="M10.5762 3.62463C2.86046 6.42428 0.569084 7.29084 0.385773 7.46581C0.0941431 7.74911 -0.0558382 8.20739 0.0191525 8.624C0.144137 9.26559 0.285786 9.33225 4.33528 10.8237L8.06815 12.1986V16.3314C8.06815 18.6061 8.09314 20.5892 8.12647 20.7392C8.20146 21.1224 9.10968 22.064 9.93458 22.6056C12.6842 24.422 16.4671 25.2469 21.4831 25.1303C25.1327 25.047 27.7823 24.5137 30.1154 23.4055C31.3986 22.8056 32.6151 21.9307 33.1317 21.2558L33.3567 20.9641L33.3983 16.6313L33.44 12.2985L34.8981 11.7736C35.698 11.482 36.3813 11.2403 36.4229 11.2403C36.4563 11.2403 36.4813 13.5734 36.4813 16.423V21.6057L34.6981 23.4055C32.1735 25.9385 32.1735 25.7052 34.6898 28.2382L36.4729 30.0297L36.4979 31.6295C36.5229 33.0959 36.5396 33.2459 36.6979 33.4626C37.2312 34.1791 38.231 34.1791 38.7643 33.4626C38.9226 33.2459 38.9393 33.1043 38.9643 31.6295L38.9893 30.0297L40.6807 28.3215C41.6139 27.38 42.4388 26.4968 42.5138 26.3468C42.6805 26.0052 42.6805 25.6385 42.5138 25.2969C42.4388 25.1469 41.6139 24.2637 40.6807 23.3222L38.9809 21.614L38.9976 15.9481L39.0226 10.2905L40.1475 9.86551C41.5723 9.34058 41.6306 9.30725 41.8306 8.84897C42.0472 8.35737 41.9722 7.90743 41.614 7.52414C41.3806 7.26584 40.4558 6.91588 31.3402 3.61629C23.0413 0.616669 21.2582 -0.00825119 20.9249 8.01086e-05C20.6249 0.00841141 18.1336 0.874973 10.5762 3.62463ZM28.9822 5.4244C33.315 6.99087 36.8812 8.29071 36.9145 8.31571C36.9479 8.34071 33.315 9.68221 28.8405 11.2987L20.7166 14.2233L12.8092 11.2987C7.30157 9.25726 4.94354 8.34904 5.04352 8.30738C5.67678 8.03241 20.8082 2.58309 20.9415 2.58309C21.0332 2.57476 24.6494 3.85793 28.9822 5.4244ZM15.5006 14.9649C19.3334 16.398 20.4333 16.773 20.7332 16.7647C20.9999 16.7647 22.5497 16.2397 25.9659 14.9982C28.6406 14.0317 30.8486 13.2401 30.8653 13.2401C30.882 13.2401 30.8986 14.7566 30.8986 16.6063V19.9809L30.607 20.2226C29.1572 21.4141 26.2909 22.2973 22.9913 22.5806C21.5581 22.6972 18.6002 22.6389 17.317 22.4556C14.534 22.064 12.2093 21.2808 10.9928 20.3142L10.5678 19.9893V16.573C10.5678 14.6899 10.5845 13.1568 10.6012 13.1568C10.6178 13.1568 12.8259 13.9733 15.5006 14.9649ZM38.6893 24.9053L39.6059 25.8219L38.6643 26.7634L37.7311 27.6966L36.7979 26.7634L35.8563 25.8219L36.7729 24.9053C37.2728 24.4054 37.7061 23.9888 37.7311 23.9888C37.7561 23.9888 38.1894 24.4054 38.6893 24.9053Z" fill="black"/>
<circle cx="21" cy="24" r="7" fill="white"/>
<g clip-path="url(#clip0_8_411)">
<path d="M20.9212 29.3206C23.9033 29.3206 26.3206 26.9033 26.3206 23.9212C26.3206 20.9391 23.9033 18.5217 20.9212 18.5217C17.9391 18.5217 15.5217 20.9391 15.5217 23.9212C15.5217 26.9033 17.9391 29.3206 20.9212 29.3206Z" stroke="black" stroke-width="1.2" stroke-linecap="round" stroke-linejoin="round"/>
<path d="M22.3348 22.4447C22.2862 22.3071 22.2112 22.182 22.1159 22.0755C21.9131 21.8489 21.6183 21.7063 21.2903 21.7063H20.433C19.887 21.7063 19.4443 22.1489 19.4443 22.695C19.4443 23.1596 19.7678 23.5615 20.2217 23.6608L21.527 23.9463C22.0355 24.0575 22.3979 24.5081 22.3979 25.0286C22.3979 25.6403 21.902 26.1366 21.2903 26.1366H20.5519C20.0697 26.1366 19.6594 25.8284 19.5074 25.3982" stroke="black" stroke-width="1.2" stroke-linecap="round" stroke-linejoin="round"/>
<path d="M20.9211 21.706V20.5984" stroke="black" stroke-width="1.2" stroke-linecap="round" stroke-linejoin="round"/>
<path d="M20.9211 27.2435V26.136" stroke="black" stroke-width="1.2" stroke-linecap="round" stroke-linejoin="round"/>
</g>
<defs>
<clipPath id="clip0_8_411">
<rect width="12" height="12" fill="white" transform="translate(15 18)"/>
</clipPath>
</defs>
</svg>
