<svg width="55" height="74" viewBox="0 0 55 74" fill="none" xmlns="http://www.w3.org/2000/svg">
<path d="M13.6978 28.0267C13.6978 36.0372 20.1896 42.531 28.1978 42.531C36.2058 42.531 42.6978 36.0372 42.6978 28.0267C42.6978 20.0163 36.2058 13.5225 28.1978 13.5225C20.1896 13.5225 13.6978 20.0163 13.6978 28.0267Z" stroke="#0084B6" stroke-width="3" stroke-linecap="round" stroke-linejoin="round"/>
<path d="M29.6978 14.5229C29.6978 14.5229 33.6978 19.8844 33.6978 28.0269C33.6978 36.1696 29.6978 41.5309 29.6978 41.5309" stroke="#0084B6" stroke-width="3" stroke-linecap="round" stroke-linejoin="round"/>
<path d="M26.6978 41.5309C26.6978 41.5309 22.6978 36.1696 22.6978 28.0269C22.6978 19.8844 26.6978 14.5229 26.6978 14.5229" stroke="#0084B6" stroke-width="3" stroke-linecap="round" stroke-linejoin="round"/>
<path d="M14.6978 32.5283H41.6978" stroke="#0084B6" stroke-width="3" stroke-linecap="round" stroke-linejoin="round"/>
<path d="M14.6978 22.5254H41.6978" stroke="#0084B6" stroke-width="3" stroke-linecap="round" stroke-linejoin="round"/>
<path d="M23.6978 52.5342H40.6978" stroke="#0084B6" stroke-width="3" stroke-linecap="round" stroke-linejoin="round"/>
<path d="M27.6978 56.5352H36.6978" stroke="#0084B6" stroke-width="3" stroke-linecap="round" stroke-linejoin="round"/>
<path d="M4.69775 45.2276V3.93875C4.69775 2.60238 5.77931 1.51904 7.11347 1.51904H50.282C51.6162 1.51904 52.6978 2.60239 52.6978 3.93876V66.1191C52.6978 67.4555 51.6162 68.5388 50.282 68.5388H28.6978" stroke="#0084B6" stroke-width="3" stroke-linecap="round" stroke-linejoin="round"/>
<path d="M9.92197 51.4052C10.8264 50.2432 12.5691 50.2432 13.4736 51.4052C14.0396 52.1324 14.9843 52.4425 15.8654 52.1903C17.2733 51.7871 18.6832 52.822 18.7387 54.299C18.7735 55.2236 19.3574 56.0352 20.2169 56.3543C21.5905 56.8642 22.129 58.5385 21.3145 59.7665C20.8047 60.535 20.8047 61.5384 21.3145 62.307C22.129 63.535 21.5905 65.2093 20.2169 65.7191C19.3574 66.0382 18.7735 66.85 18.7387 67.7745C18.6832 69.2516 17.2733 70.2864 15.8654 69.8833C14.9843 69.6311 14.0396 69.9411 13.4736 70.6683C12.5691 71.8304 10.8264 71.8304 9.92197 70.6683C9.35592 69.9411 8.4112 69.6311 7.53012 69.8833C6.12225 70.2864 4.71233 69.2516 4.65677 67.7745C4.622 66.85 4.03815 66.0382 3.17855 65.7191C1.80502 65.2093 1.26648 63.535 2.08103 62.307C2.5908 61.5384 2.5908 60.535 2.08103 59.7665C1.26648 58.5385 1.80502 56.8642 3.17855 56.3543C4.03815 56.0352 4.622 55.2236 4.65677 54.299C4.71233 52.822 6.12224 51.7871 7.53012 52.1903C8.4112 52.4425 9.35592 52.1324 9.92197 51.4052Z" stroke="#0084B6" stroke-width="3"/>
<path d="M8.69775 61.5367L10.6977 63.5373L14.6978 59.5361" stroke="#0084B6" stroke-width="3" stroke-linecap="round" stroke-linejoin="round"/>
</svg>
