<svg width="32" height="34" viewBox="0 0 32 34" fill="none" xmlns="http://www.w3.org/2000/svg">
<path d="M3.51159 27.5106L3.5116 27.5106L3.51202 27.507C3.63535 26.4381 4.28608 25.5601 5.18769 25.1126C5.95598 25.6426 6.9018 25.9741 7.90216 25.9741C8.94796 25.9741 9.853 25.6436 10.6095 25.1185C11 25.3245 11.3449 25.6035 11.6232 25.9553C10.4815 26.7754 9.64127 28.0341 9.48487 29.5763L9.27812 31.189C8.81024 31.2125 8.33752 31.2126 7.85018 31.2126C6.27783 31.2126 4.76053 31.0612 3.34828 30.7602C3.20475 30.7125 3.13406 30.5698 3.14637 30.4837L3.14647 30.4837L3.14767 30.4739L3.51159 27.5106Z" stroke="black"/>
<path d="M5.28296 21.2631C5.28296 19.8236 6.46277 18.6438 7.90222 18.6438C9.34168 18.6438 10.5215 19.8236 10.5215 21.2631C10.5215 22.7025 9.34168 23.8823 7.90222 23.8823C6.46277 23.8823 5.28296 22.7025 5.28296 21.2631Z" stroke="black"/>
<path d="M28.3047 27.507L28.3047 27.507L28.3051 27.5106L28.6691 30.4739L28.669 30.4739L28.6704 30.4837C28.6827 30.5699 28.612 30.7125 28.4684 30.7602C27.0562 31.0612 25.5389 31.2126 23.9666 31.2126C23.4792 31.2126 23.0065 31.2125 22.5386 31.189L22.331 29.5695L22.331 29.5695L22.3307 29.567C22.1269 28.0388 21.3304 26.7767 20.186 25.9511C20.448 25.6127 20.7945 25.3211 21.2024 25.1141C21.9703 25.6433 22.9152 25.9741 23.9146 25.9741C24.9149 25.9741 25.8607 25.6426 26.629 25.1126C27.5306 25.5601 28.1814 26.4381 28.3047 27.507Z" stroke="black"/>
<path d="M21.2952 21.2631C21.2952 19.8236 22.475 18.6438 23.9144 18.6438C25.4004 18.6438 26.5337 19.8181 26.5337 21.2631C26.5337 22.7025 25.3539 23.8823 23.9144 23.8823C22.475 23.8823 21.2952 22.7025 21.2952 21.2631Z" stroke="black"/>
<path d="M11.5174 29.7979L11.5175 29.7979L11.5179 29.7943C11.6412 28.7254 12.2919 27.8474 13.1935 27.3999C13.9618 27.93 14.9077 28.2615 15.908 28.2615C16.9575 28.2615 17.8652 27.9286 18.6233 27.4003C19.5226 27.847 20.1722 28.7222 20.2974 29.7878L20.5567 32.744L20.5579 32.7575L20.5598 32.771C20.5721 32.8572 20.5015 32.9999 20.3579 33.0475C18.9457 33.3485 17.4284 33.5 15.856 33.5C14.2837 33.5 12.7664 33.3485 11.3541 33.0475C11.2106 32.9999 11.1399 32.8572 11.1522 32.771L11.1523 32.771L11.1535 32.7612L11.5174 29.7979Z" stroke="black"/>
<path d="M13.2888 23.5504C13.2888 22.111 14.4686 20.9312 15.9081 20.9312C17.3475 20.9312 18.5273 22.111 18.5273 23.5504C18.5273 24.9899 17.3475 26.1697 15.9081 26.1697C14.4686 26.1697 13.2888 24.9899 13.2888 23.5504Z" stroke="black"/>
<path d="M16.6164 2.13937V2.60758L17.0837 2.63829C24.853 3.1489 30.6524 8.02317 31.0521 14.2102C31.0538 14.3783 31.0806 14.5352 31.1402 14.6718C31.1111 14.7718 31.0415 14.8338 30.9491 14.8605C30.7658 14.9135 30.6455 14.8558 30.5776 14.7527L30.5711 14.7429L30.5642 14.7335C29.7565 13.624 28.5288 12.9624 27.2213 12.9624C25.7604 12.9624 24.4068 13.7303 23.6956 14.9853C23.6487 15.0634 23.5969 15.1151 23.5558 15.1413C23.5206 15.1638 23.5029 15.1631 23.4894 15.1609L23.4481 15.1539H23.4062C23.2827 15.1539 23.184 15.0986 23.1146 14.9815L23.1146 14.9815L23.111 14.9756C22.3537 13.7375 21.0098 12.9624 19.5911 12.9624C18.5121 12.9624 17.5186 13.446 16.7751 14.1406L16.6164 14.2888V14.5059V18.1128C16.5956 18.1239 16.5663 18.1373 16.5268 18.1517C16.3476 18.2168 16.0749 18.2586 15.776 18.2586C15.4771 18.2586 15.2044 18.2168 15.0252 18.1517C14.9857 18.1373 14.9564 18.1239 14.9356 18.1128V14.5059V14.2888L14.7769 14.1406C14.0188 13.4323 13.022 13.0145 11.9609 13.0145C10.5335 13.0145 9.18908 13.8503 8.48685 15.0895C8.41752 15.2041 8.31956 15.2583 8.19734 15.2583C8.07629 15.2583 7.97905 15.2052 7.90985 15.0928C7.20109 13.7872 5.84844 13.0145 4.43378 13.0145C3.07092 13.0145 1.89617 13.6795 1.09089 14.7856L1.084 14.7951L1.07756 14.8049C1.01109 14.9058 0.894462 14.9632 0.717732 14.9159C0.598003 14.8707 0.5 14.7395 0.5 14.6103V14.61V14.6097V14.6094V14.6091V14.6087V14.6084V14.6081V14.6077V14.6074V14.6071V14.6067V14.6064V14.606V14.6057V14.6053V14.605V14.6046V14.6042V14.6039V14.6035V14.6031V14.6027V14.6024V14.602V14.6016V14.6012V14.6008V14.6004V14.6V14.5996V14.5992V14.5988V14.5984V14.5979V14.5975V14.5971V14.5967V14.5963V14.5958V14.5954V14.5949V14.5945V14.5941V14.5936V14.5932V14.5927V14.5923V14.5918V14.5913V14.5909V14.5904V14.5899V14.5895V14.589V14.5885V14.588V14.5876V14.5871V14.5866V14.5861V14.5856V14.5851V14.5846V14.5841V14.5836V14.5831V14.5826V14.5821V14.5816V14.5811V14.5805V14.58V14.5795V14.579V14.5784V14.5779V14.5774V14.5769V14.5763V14.5758V14.5752V14.5747V14.5741V14.5736V14.573V14.5725V14.5719V14.5714V14.5708V14.5703V14.5697V14.5691V14.5686V14.568V14.5674V14.5669V14.5663V14.5657V14.5651V14.5645V14.564V14.5634V14.5628V14.5622V14.5616V14.561V14.5604V14.5598V14.5592V14.5586V14.558V14.5574V14.5568V14.5562V14.5556V14.555V14.5544V14.5538V14.5531V14.5525V14.5519V14.5513V14.5507V14.55V14.5494V14.5488V14.5482V14.5475V14.5469V14.5463V14.5456V14.545V14.5444V14.5437V14.5431V14.5424V14.5418V14.5411V14.5405V14.5399V14.5392V14.5386V14.5379V14.5373V14.5366V14.536V14.5353V14.5346V14.534V14.5333V14.5327V14.532V14.5313V14.5307V14.53V14.5293V14.5287V14.528V14.5273V14.5267V14.526V14.5253V14.5247V14.524V14.5233V14.5226V14.522V14.5213V14.5206V14.5199V14.5192V14.5186V14.5179V14.5172V14.5165V14.5158V14.5152V14.5145V14.5138V14.5131V14.5124V14.5117V14.511V14.5104V14.5097V14.509V14.5083V14.5076V14.5069V14.5062V14.5055V14.5048V14.5041V14.5034V14.5027V14.5021V14.5014V14.5007V14.5V14.4993V14.4986V14.4979V14.4972V14.4965V14.4958V14.4951V14.4944V14.4937V14.493V14.4923V14.4916V14.4909V14.4902V14.4895V14.4888V14.4881V14.4874V14.4867V14.486V14.4853V14.4846V14.4839V14.4832V14.4825V14.4818V14.4811V14.4804V14.4797V14.479V14.4783V14.4776V14.4769V14.4762V14.4755V14.4748V14.4741V14.4734V14.4728V14.4721V14.4714V14.4707V14.47V14.4693V14.4686V14.4679V14.4672V14.4665V14.4658V14.4651V14.4644V14.4637V14.463V14.4624V14.4617V14.461V14.4603V14.4596V14.4589V14.4582V14.4575V14.4569V14.4562V14.4555V14.4548V14.4541V14.4534V14.4528V14.4521V14.4514V14.4507V14.45V14.4494V14.4487V14.448V14.4473V14.4467V14.446V14.4453V14.4447V14.444V14.4433V14.4427V14.442V14.4413V14.4407V14.44V14.4393V14.4387V14.438V14.4374V14.4367V14.436V14.4354V14.4347V14.4341V14.4334V14.4328V14.4321V14.4315V14.4308V14.4302V14.4295V14.4289V14.4283V14.4276V14.427V14.4263V14.4257V14.4251V14.4244V14.4238V14.4232V14.4226V14.4219V14.4213V14.4207V14.4201V14.4194V14.4188V14.4182V14.4176V14.417V14.4164V14.4157V14.4151V14.4145V14.4139V14.4133V14.4127V14.4121V14.4115V14.4109V14.4103V14.4097V14.4092V14.4086V14.408V14.4074V14.4068V14.4062V14.4056V14.4051V14.4045V14.4039V14.4033V14.4028V14.4022V14.4016V14.4011V14.4005V14.4V14.3994V14.3989V14.3983V14.3978V14.3972V14.3967V14.3961V14.3956V14.395V14.3945V14.394V14.3934V14.3929V14.3924V14.3919V14.3913V14.3908V14.3903V14.3898V14.3893V14.3888V14.3882V14.3877V14.3872V14.3867V14.3862V14.3857V14.3853V14.3848V14.3843V14.3838V14.3833V14.3828V14.3824V14.3819V14.3814V14.3809V14.3805V14.38V14.3796V14.3791V14.3786V14.3782V14.3777V14.3773V14.3769V14.3764V14.376V14.3755V14.3751V14.3747V14.3743V14.3738V14.3734V14.373V14.3726V14.3722V14.3718V14.3714V14.371V14.3706V14.3702V14.3698V14.3694V14.369V14.3686V14.3683V14.3679V14.3675V14.3671V14.3668V14.3664V14.3661V14.3657V14.3653V14.365C0.900635 8.01952 6.70312 3.14863 14.4684 2.63829L14.9356 2.60758V2.13937V1.35667C14.9356 0.896609 15.336 0.5 15.776 0.5C16.216 0.5 16.6164 0.896609 16.6164 1.35667V2.13937Z" stroke="black"/>
</svg>
