<svg width="31" height="20" viewBox="0 0 31 20" fill="none" xmlns="http://www.w3.org/2000/svg">
<path d="M0.215642 0.324417L0 0.540123V9.57744C0 18.5181 0 18.6148 0.148719 18.8007C0.371796 19.0834 0.743593 19.1875 1.06334 19.0462C1.50949 18.8676 1.56154 18.6594 1.56154 17.2164V15.9519H15.0578H28.554V17.2833C28.554 18.5032 28.5688 18.6222 28.7027 18.8007C28.9258 19.0834 29.2976 19.1875 29.6173 19.0462C30.1378 18.8305 30.1229 18.9792 30.1006 14.1444L30.0783 9.81546L29.8999 9.42124C29.6842 8.9452 29.067 8.35759 28.5763 8.17163C28.2342 8.03775 27.7732 8.03031 18.798 8.00799L9.3767 7.99312L9.42876 7.74766C9.4585 7.62121 9.48081 6.9741 9.48081 6.31954C9.48081 5.19639 9.47337 5.10713 9.28747 4.72035C8.92311 3.94678 8.44721 3.53768 7.65901 3.33685C7.28721 3.24016 6.75182 3.22528 4.52104 3.2476C3.03386 3.26247 1.76231 3.29966 1.69539 3.33685C1.56898 3.39636 1.56154 3.3071 1.56154 2.04262C1.56154 0.912027 1.53924 0.651693 1.43513 0.480618C1.18231 0.0492058 0.572566 -0.0251751 0.215642 0.324417ZM7.66644 5.08481L7.88208 5.30052V6.43111V7.56171L7.66644 7.77741L7.4508 7.99312H4.75899H2.06719L1.81437 7.74022L1.56154 7.48733V6.4683C1.56154 5.38234 1.62847 5.11457 1.96308 4.95093C2.05975 4.9063 3.15283 4.87655 4.7813 4.87655L7.4508 4.86911L7.66644 5.08481ZM28.2045 9.7857C28.5242 10.0312 28.5614 10.3287 28.5391 12.4188L28.5168 14.3527L15.0429 14.375L1.56154 14.3899V12.0097V9.6295H14.7901H28.0111L28.2045 9.7857Z" fill="#009BD6"/>
</svg>
