<svg width="34" height="35" viewBox="0 0 34 35" fill="none" xmlns="http://www.w3.org/2000/svg">
<path d="M2.39717 0.332432C1.25498 0.558281 0.285449 1.54138 0.0663086 2.71048C-0.0266602 3.20203 -0.0266602 31.3267 0.0663086 31.8183C0.29209 33.0139 1.25498 33.9771 2.45029 34.203C2.9417 34.296 22.9565 34.296 23.448 34.203C24.6433 33.9771 25.6062 33.0139 25.8319 31.8183C25.8718 31.5991 25.8983 29.7391 25.8983 26.936V22.419L29.7034 18.5929C33.2229 15.059 33.5218 14.7402 33.6944 14.3549C34.0796 13.4715 34.0729 12.6345 33.6745 11.7776C33.1433 10.6484 31.7952 9.93096 30.58 10.1369C29.6503 10.2963 29.4245 10.4624 27.5784 12.3024L25.8983 13.9697V9.91104C25.8983 7.47985 25.8718 5.71292 25.8319 5.50036C25.6792 4.67004 25.4866 4.41762 23.614 2.54441C21.7413 0.671204 21.489 0.478569 20.6589 0.32579C20.214 0.246078 2.82217 0.246078 2.39717 0.332432ZM17.9296 4.84939C17.9296 7.42007 17.9296 7.45328 18.0757 7.71234C18.3679 8.23046 18.3745 8.23046 21.3163 8.23046H23.9062V12.1031V15.9691L21.6483 18.2275L19.3905 20.486L18.6269 22.7844C18.2085 24.0465 17.8632 25.169 17.8632 25.2753C17.8698 25.7337 18.3679 26.2319 18.8261 26.2319C19.1448 26.2319 23.5675 24.7306 23.7534 24.5646L23.9062 24.4184V27.9523C23.9062 31.3599 23.8995 31.4928 23.7733 31.7452C23.687 31.9179 23.5476 32.0574 23.3749 32.1438C23.1159 32.2766 23.003 32.2766 12.9491 32.2766C3.10107 32.2766 2.77568 32.27 2.53662 32.1504C2.39053 32.0773 2.23115 31.9179 2.13818 31.7585L1.99209 31.4928V17.2577V3.01604L2.15146 2.75698C2.47686 2.21893 1.81279 2.25878 10.346 2.25214H17.9296V4.84939ZM20.4331 2.31857C20.6788 2.41156 23.6937 5.41401 23.8132 5.68635C23.8663 5.80592 23.9062 5.97863 23.9062 6.07162V6.23769H21.914H19.9218V4.24491V2.25214H20.0812C20.1741 2.25214 20.3269 2.28535 20.4331 2.31857ZM31.4765 12.216C31.762 12.3621 32.0077 12.7474 32.0077 13.053C32.0077 13.3718 31.762 13.7637 31.2308 14.2885L30.7128 14.8066L29.9956 14.0892L29.2851 13.3785L29.8296 12.8338C30.1351 12.5349 30.4737 12.2426 30.58 12.1894C30.8522 12.0433 31.1644 12.0566 31.4765 12.216ZM26.8944 18.6261L24.5038 21.0174L23.7933 20.3L23.0761 19.5893L25.4667 17.1979L27.8573 14.8066L28.5679 15.5174L29.2851 16.2348L26.8944 18.6261ZM22.3788 21.7481L23.0761 22.4456L22.8104 22.7046C22.5847 22.9239 22.3987 23.0102 21.5222 23.3025C20.9577 23.4885 20.4862 23.628 20.4729 23.6213C20.4663 23.608 20.6058 23.1364 20.7917 22.5718C21.0706 21.7348 21.1769 21.5023 21.3694 21.2964C21.5022 21.1636 21.6284 21.0506 21.6483 21.0506C21.6683 21.0506 21.9937 21.3628 22.3788 21.7481Z" fill="#2B3337"/>
<path d="M2.39717 0.332432C1.25498 0.558281 0.285449 1.54138 0.0663086 2.71048C-0.0266602 3.20203 -0.0266602 31.3267 0.0663086 31.8183C0.29209 33.0139 1.25498 33.9771 2.45029 34.203C2.9417 34.296 22.9565 34.296 23.448 34.203C24.6433 33.9771 25.6062 33.0139 25.8319 31.8183C25.8718 31.5991 25.8983 29.7391 25.8983 26.936V22.419L29.7034 18.5929C33.2229 15.059 33.5218 14.7402 33.6944 14.3549C34.0796 13.4715 34.0729 12.6345 33.6745 11.7776C33.1433 10.6484 31.7952 9.93096 30.58 10.1369C29.6503 10.2963 29.4245 10.4624 27.5784 12.3024L25.8983 13.9697V9.91104C25.8983 7.47985 25.8718 5.71292 25.8319 5.50036C25.6792 4.67004 25.4866 4.41762 23.614 2.54441C21.7413 0.671204 21.489 0.478569 20.6589 0.32579C20.214 0.246078 2.82217 0.246078 2.39717 0.332432ZM17.9296 4.84939C17.9296 7.42007 17.9296 7.45328 18.0757 7.71234C18.3679 8.23046 18.3745 8.23046 21.3163 8.23046H23.9062V12.1031V15.9691L21.6483 18.2275L19.3905 20.486L18.6269 22.7844C18.2085 24.0465 17.8632 25.169 17.8632 25.2753C17.8698 25.7337 18.3679 26.2319 18.8261 26.2319C19.1448 26.2319 23.5675 24.7306 23.7534 24.5646L23.9062 24.4184V27.9523C23.9062 31.3599 23.8995 31.4928 23.7733 31.7452C23.687 31.9179 23.5476 32.0574 23.3749 32.1438C23.1159 32.2766 23.003 32.2766 12.9491 32.2766C3.10107 32.2766 2.77568 32.27 2.53662 32.1504C2.39053 32.0773 2.23115 31.9179 2.13818 31.7585L1.99209 31.4928V17.2577V3.01604L2.15146 2.75698C2.47686 2.21893 1.81279 2.25878 10.346 2.25214H17.9296V4.84939ZM20.4331 2.31857C20.6788 2.41156 23.6937 5.41401 23.8132 5.68635C23.8663 5.80592 23.9062 5.97863 23.9062 6.07162V6.23769H21.914H19.9218V4.24491V2.25214H20.0812C20.1741 2.25214 20.3269 2.28535 20.4331 2.31857ZM31.4765 12.216C31.762 12.3621 32.0077 12.7474 32.0077 13.053C32.0077 13.3718 31.762 13.7637 31.2308 14.2885L30.7128 14.8066L29.9956 14.0892L29.2851 13.3785L29.8296 12.8338C30.1351 12.5349 30.4737 12.2426 30.58 12.1894C30.8522 12.0433 31.1644 12.0566 31.4765 12.216ZM26.8944 18.6261L24.5038 21.0174L23.7933 20.3L23.0761 19.5893L25.4667 17.1979L27.8573 14.8066L28.5679 15.5174L29.2851 16.2348L26.8944 18.6261ZM22.3788 21.7481L23.0761 22.4456L22.8104 22.7046C22.5847 22.9239 22.3987 23.0102 21.5222 23.3025C20.9577 23.4885 20.4862 23.628 20.4729 23.6213C20.4663 23.608 20.6058 23.1364 20.7917 22.5718C21.0706 21.7348 21.1769 21.5023 21.3694 21.2964C21.5022 21.1636 21.6284 21.0506 21.6483 21.0506C21.6683 21.0506 21.9937 21.3628 22.3788 21.7481Z" fill="black" fill-opacity="0.2"/>
<path d="M4.52227 10.3495C4.24336 10.4956 3.98438 10.9141 3.98438 11.213C3.98438 11.5319 4.23672 11.9437 4.52891 12.0899C4.76797 12.2094 5.04023 12.2161 11.9531 12.2161C19.0121 12.2161 19.1316 12.2161 19.3906 12.0832C19.6895 11.9304 19.9219 11.5518 19.9219 11.2197C19.9219 10.8875 19.6895 10.5089 19.3906 10.3561C19.1316 10.2233 19.0188 10.2233 11.9398 10.2233C5.14648 10.2299 4.73477 10.2366 4.52227 10.3495Z" fill="#2B3337"/>
<path d="M4.52227 10.3495C4.24336 10.4956 3.98438 10.9141 3.98438 11.213C3.98438 11.5319 4.23672 11.9437 4.52891 12.0899C4.76797 12.2094 5.04023 12.2161 11.9531 12.2161C19.0121 12.2161 19.1316 12.2161 19.3906 12.0832C19.6895 11.9304 19.9219 11.5518 19.9219 11.2197C19.9219 10.8875 19.6895 10.5089 19.3906 10.3561C19.1316 10.2233 19.0188 10.2233 11.9398 10.2233C5.14648 10.2299 4.73477 10.2366 4.52227 10.3495Z" fill="black" fill-opacity="0.2"/>
<path d="M4.52227 14.3351C4.24336 14.4812 3.98438 14.8997 3.98438 15.1986C3.98438 15.5175 4.23672 15.9293 4.52891 16.0755C4.76797 16.195 5.00039 16.2017 9.96094 16.2017C15.0277 16.2017 15.1539 16.2017 15.4062 16.0688C15.7051 15.916 15.9375 15.5374 15.9375 15.2053C15.9375 14.8731 15.7051 14.4945 15.4062 14.3417C15.1539 14.2089 15.0277 14.2089 9.94766 14.2089C5.0668 14.2155 4.73477 14.2222 4.52227 14.3351Z" fill="#2B3337"/>
<path d="M4.52227 14.3351C4.24336 14.4812 3.98438 14.8997 3.98438 15.1986C3.98438 15.5175 4.23672 15.9293 4.52891 16.0755C4.76797 16.195 5.00039 16.2017 9.96094 16.2017C15.0277 16.2017 15.1539 16.2017 15.4062 16.0688C15.7051 15.916 15.9375 15.5374 15.9375 15.2053C15.9375 14.8731 15.7051 14.4945 15.4062 14.3417C15.1539 14.2089 15.0277 14.2089 9.94766 14.2089C5.0668 14.2155 4.73477 14.2222 4.52227 14.3351Z" fill="black" fill-opacity="0.2"/>
<path d="M4.52227 18.3204C4.24336 18.4666 3.98438 18.8851 3.98438 19.184C3.98438 19.5028 4.23672 19.9147 4.52891 20.0608C4.76797 20.1804 5.00039 20.187 9.96094 20.187C15.0277 20.187 15.1539 20.187 15.4062 20.0542C15.7051 19.9014 15.9375 19.5228 15.9375 19.1906C15.9375 18.8585 15.7051 18.4799 15.4062 18.3271C15.1539 18.1942 15.0277 18.1942 9.94766 18.1942C5.0668 18.2009 4.73477 18.2075 4.52227 18.3204Z" fill="#2B3337"/>
<path d="M4.52227 18.3204C4.24336 18.4666 3.98438 18.8851 3.98438 19.184C3.98438 19.5028 4.23672 19.9147 4.52891 20.0608C4.76797 20.1804 5.00039 20.187 9.96094 20.187C15.0277 20.187 15.1539 20.187 15.4062 20.0542C15.7051 19.9014 15.9375 19.5228 15.9375 19.1906C15.9375 18.8585 15.7051 18.4799 15.4062 18.3271C15.1539 18.1942 15.0277 18.1942 9.94766 18.1942C5.0668 18.2009 4.73477 18.2075 4.52227 18.3204Z" fill="black" fill-opacity="0.2"/>
<path d="M4.52227 22.306C4.24336 22.4522 3.98438 22.8707 3.98438 23.1696C3.98438 23.4884 4.23672 23.9003 4.52891 24.0464C4.76797 24.166 5.00039 24.1726 9.96094 24.1726C15.0277 24.1726 15.1539 24.1726 15.4062 24.0398C15.7051 23.887 15.9375 23.5083 15.9375 23.1762C15.9375 22.8441 15.7051 22.4655 15.4062 22.3127C15.1539 22.1798 15.0277 22.1798 9.94766 22.1798C5.0668 22.1865 4.73477 22.1931 4.52227 22.306Z" fill="#2B3337"/>
<path d="M4.52227 22.306C4.24336 22.4522 3.98438 22.8707 3.98438 23.1696C3.98438 23.4884 4.23672 23.9003 4.52891 24.0464C4.76797 24.166 5.00039 24.1726 9.96094 24.1726C15.0277 24.1726 15.1539 24.1726 15.4062 24.0398C15.7051 23.887 15.9375 23.5083 15.9375 23.1762C15.9375 22.8441 15.7051 22.4655 15.4062 22.3127C15.1539 22.1798 15.0277 22.1798 9.94766 22.1798C5.0668 22.1865 4.73477 22.1931 4.52227 22.306Z" fill="black" fill-opacity="0.2"/>
<path d="M12.491 28.4174C12.2121 28.5635 11.9531 28.982 11.9531 29.2809C11.9531 29.5997 12.2055 30.0116 12.4977 30.1577C12.7301 30.2773 12.9359 30.2839 15.9375 30.2839C19.0055 30.2839 19.1383 30.2773 19.3906 30.1511C19.6895 29.9983 19.9219 29.6197 19.9219 29.2875C19.9219 28.9554 19.6895 28.5768 19.3906 28.424C19.1383 28.2978 19.0121 28.2912 15.9242 28.2912C12.9625 28.2978 12.6969 28.3044 12.491 28.4174Z" fill="#2B3337"/>
<path d="M12.491 28.4174C12.2121 28.5635 11.9531 28.982 11.9531 29.2809C11.9531 29.5997 12.2055 30.0116 12.4977 30.1577C12.7301 30.2773 12.9359 30.2839 15.9375 30.2839C19.0055 30.2839 19.1383 30.2773 19.3906 30.1511C19.6895 29.9983 19.9219 29.6197 19.9219 29.2875C19.9219 28.9554 19.6895 28.5768 19.3906 28.424C19.1383 28.2978 19.0121 28.2912 15.9242 28.2912C12.9625 28.2978 12.6969 28.3044 12.491 28.4174Z" fill="black" fill-opacity="0.2"/>
</svg>
