<svg width="22" height="22" viewBox="0 0 22 22" fill="none" xmlns="http://www.w3.org/2000/svg">
<path d="M13.6957 20.2167C14.6411 20.8275 15.7677 21.0937 16.8861 20.9706C18.0045 20.8474 19.0464 20.3423 19.8367 19.5401L20.5275 18.8635C20.8304 18.5532 21 18.1366 21 17.7027C21 17.2688 20.8304 16.852 20.5275 16.5418L17.5952 13.6357C17.288 13.3333 16.8745 13.1639 16.4438 13.1639C16.013 13.1639 15.5995 13.3333 15.2923 13.6357C14.9825 13.9391 14.5665 14.1089 14.1332 14.1089C13.6999 14.1089 13.2839 13.9391 12.9741 13.6357L8.36834 9.02286C8.2147 8.87122 8.09268 8.69049 8.0094 8.4912C7.92613 8.29191 7.88323 8.07801 7.88323 7.86197C7.88323 7.64592 7.92613 7.43204 8.0094 7.23273C8.09268 7.03344 8.2147 6.85272 8.36834 6.70107C8.67025 6.3934 8.83942 5.97926 8.83942 5.54787C8.83942 5.11647 8.67025 4.70234 8.36834 4.39465L5.45139 1.4732C5.14154 1.16985 4.72554 1 4.29231 1C3.85893 1 3.44293 1.16985 3.13308 1.4732L2.45754 2.16513C1.65677 2.95659 1.15247 4.00011 1.02939 5.1202C0.906315 6.2403 1.17216 7.36866 1.78216 8.31556C4.96016 13.0064 9.00383 17.0458 13.6957 20.2167Z" fill="#0084b6" stroke="#0084b6" stroke-linecap="round" stroke-linejoin="round"/>
</svg>
